<?xml version="1.0" encoding="UTF-8"?>
<svg id="Színtáradatok_réteg" xmlns="http://www.w3.org/2000/svg" xmlns:xlink="http://www.w3.org/1999/xlink" version="1.1" viewBox="0 0 700 700">
  <!-- Generator: Adobe Illustrator 30.2.1, SVG Export Plug-In . SVG Version: 2.1.1 Build 1)  -->
  <defs>
    <style>
      .st0 {
        fill: url(#linear-gradient2);
      }

      .st1 {
        fill: url(#linear-gradient1);
      }

      .st2 {
        fill: url(#linear-gradient9);
      }

      .st3 {
        fill: url(#linear-gradient3);
      }

      .st4 {
        fill: url(#linear-gradient6);
      }

      .st5 {
        fill: url(#linear-gradient8);
      }

      .st6 {
        fill: url(#linear-gradient7);
      }

      .st7 {
        fill: url(#linear-gradient5);
      }

      .st8 {
        fill: url(#linear-gradient4);
      }

      .st9 {
        fill: url(#linear-gradient11);
      }

      .st10 {
        fill: url(#linear-gradient10);
      }

      .st11 {
        fill: url(#linear-gradient);
      }
    </style>
    <linearGradient id="linear-gradient" x1="498.12" y1="705.98" x2="581.08" y2="63.03" gradientUnits="userSpaceOnUse">
      <stop offset="0" stop-color="#02378f"/>
      <stop offset="1" stop-color="#0185e4"/>
    </linearGradient>
    <linearGradient id="linear-gradient1" x1="227.8" y1="671.11" x2="310.77" y2="28.15" xlink:href="#linear-gradient"/>
    <linearGradient id="linear-gradient2" x1="123.34" y1="657.63" x2="206.31" y2="14.67" xlink:href="#linear-gradient"/>
    <linearGradient id="linear-gradient3" x1="106.8" y1="655.49" x2="189.76" y2="12.53" xlink:href="#linear-gradient"/>
    <linearGradient id="linear-gradient4" x1="139.4" y1="659.7" x2="222.36" y2="16.74" xlink:href="#linear-gradient"/>
    <linearGradient id="linear-gradient5" x1="282.12" y1="678.11" x2="365.08" y2="35.16" xlink:href="#linear-gradient"/>
    <linearGradient id="linear-gradient6" x1="311.6" y1="681.92" x2="394.56" y2="38.96" xlink:href="#linear-gradient"/>
    <linearGradient id="linear-gradient7" x1="288.85" y1="678.98" x2="371.81" y2="36.02" xlink:href="#linear-gradient"/>
    <linearGradient id="linear-gradient8" x1="123.35" y1="657.63" x2="206.31" y2="14.67" xlink:href="#linear-gradient"/>
    <linearGradient id="linear-gradient9" x1="155.7" y1="661.8" x2="238.67" y2="18.84" xlink:href="#linear-gradient"/>
    <linearGradient id="linear-gradient10" x1="139.45" y1="659.71" x2="222.42" y2="16.75" xlink:href="#linear-gradient"/>
    <linearGradient id="linear-gradient11" x1="498.28" y1="706.01" x2="581.24" y2="63.05" xlink:href="#linear-gradient"/>
  </defs>
  <path class="st11" d="M543.81,610.54c-1.6,2.22-4.16,3.72-5.72,3.91-1.68.2-4.69-1.22-5.95-2.92-22.71-30.51-43.36-61.51-62.21-94.61-11.55-20.28-22.47-39.82-31.59-61.2-6.17-14.46-10.38-28.66-11.32-44.1-3.75-61.57,42.31-113.28,103.99-116.99,36.75-2.21,72.93,14.5,95.02,44.15,24.69,33.13,26.9,75.09,11.68,112.83-6.97,17.27-15.2,32.92-24.24,49.35-20.98,38.12-44.14,74.06-69.65,109.58ZM551.48,463.74c26.58-6.26,45.03-29.21,46.53-55.03,1.56-26.73-14.06-50.91-39.53-60.23-18.79-6.88-38.67-4.87-55.92,6.63-14.28,9.53-24.82,25.89-26.45,44.66-1.72,19.71,6.32,38.18,20.48,50.56,15.09,13.2,34.62,18.18,54.88,13.4Z"/>
  <path class="st1" d="M90.74,96.62c-10.87,0-18.47,8.56-18.46,18.44l.11,462.46c0,11.87,11.05,19.44,21.66,19.43l358.05-.17c10.28,0,17.71-9.18,17.97-18.24l.79-27.58c4.18,8.49,11.55,15.02,14.55,24.16,4.68,14.27-9.31,39.2-36.95,39.2H92.14c-21.48,0-39.43-16.89-39.42-39.4l.18-460.96c0-19.22,16.8-34.99,35.49-35.01l296.18-.35c2.84,0,6.65,1.07,8.52,2.93l88.42,88.02c3.66,3.65,5.19,6.73,5.17,12.1l-.28,103.27-15.89,7.76-.07-98.08c0-2.23-1.64-4.08-3.78-4.08l-83.85-.06c-3.01,0-6.33-3.01-6.33-5.95l.02-83.75c0-1.68-1.82-4.25-3.95-4.25l-281.81.11ZM457.33,171.5l-62.03-61.67-.22,62.22,62.24-.55Z"/>
  <path class="st0" d="M197.22,352.91c1.49-3.59,4.89-4.68,7.99-4.13,3.35.59,6.21,3.61,6.18,7.47l-.26,37.09c-.03,3.9-4.79,6.64-8.27,6.64h-80.91c-3.49.01-8.05-2.81-8.05-6.66l-.06-77.83c0-4.52,3.71-7.79,8.13-7.79l64.76.02c3.41,0,6.14,3.88,6.34,6.25.31,3.69-2.23,7.11-6.25,7.45l-58.32.16v64.51s68.69.06,68.69.06l.03-33.24Z"/>
  <path class="st3" d="M197.14,224.19c.7-4.01,3.97-5.94,7.22-5.73,3.58.22,6.85,2.89,6.85,7.02l.07,36.05c.01,5.01-3.42,8.76-8.54,8.76l-80.66-.02c-6.09,0-8.3-4.76-8.3-9.76v-74.98c0-4.35,2.15-8.91,7.34-8.91l65.67-.02c3.74,0,6.74,3.49,6.88,6.47.16,3.44-2.22,6.25-5.94,7.24l-59.32.13.02,66.13,68.68-.02v-32.36Z"/>
  <path class="st8" d="M197.26,480.13c1.43-3.97,5.17-5.36,8.87-4.45,3.09.76,5.32,3.96,5.31,7.74l-.09,34.28c-.01,3.92-3.39,7.61-7.56,7.61l-81.8.02c-3.91,0-8.08-3.12-8.08-7.08l-.04-75.95c0-3.91,2.76-7.92,7.17-7.92h65.83c3.45.02,6.36,3.98,6.51,6.71.19,3.54-2.59,6.42-6.5,7.12l-58.41.13-.1,63.11,68.89.12.02-31.43Z"/>
  <path class="st7" d="M429,237.02h-177.24c-5.44.01-8.8-4.63-8.88-8.97-.08-4.58,3.74-8.4,9.19-8.4l177.04.05c5.02,0,8.35,4.85,8.37,8.3.04,4.76-2.51,7.92-8.48,9.01Z"/>
  <path class="st4" d="M424.48,494.08l-173.28.06c-5.15,0-8.25-4.95-8.44-8.45-.27-4.95,3.57-8.85,9.21-8.85l168.6-.03c5.28,0,8.18,2.83,9.61,7.06.53,1.56.85,4.89.42,6.25-.49,1.56-3.31,3.95-6.11,3.96Z"/>
  <path class="st6" d="M418.73,349.63l-5.9,15.85-160.8.1c-5.46,0-8.7-4.47-8.88-8.81s3.45-8.63,8.84-8.63h159.63c2.29,0,5.06.82,7.11,1.49Z"/>
  <path class="st5" d="M157.69,245.11c-6.81-6.83-13.27-13.72-19.54-20.69-2.92-3.25-.7-9.11,1.75-11.14,9.04-7.49,15.41,7.83,22.45,12.17l49.31-43.11c3.5-3.06,7.26-3.59,11.24-1.02,2.59,1.67,6.06,7.6,2.36,10.89l-56.94,50.68c-2.52,2.25-7.18,5.69-10.64,2.21Z"/>
  <path class="st2" d="M138.21,480.66c-2.97-3.22-.3-9.22,2.07-11.09,8.94-7.05,14.89,7.96,22.15,12.21l49.19-42.72c3.45-3,7.65-2.99,10.9-.58,2.81,2.09,5.62,7.73,2.15,10.77l-28.13,24.64-30.44,27.35c-3.2,2.88-7.52,1.49-9.96-1.16l-17.92-19.43Z"/>
  <path class="st10" d="M156.29,373.59l-16.81-17.78c-3.1-3.28-3.23-7.68-.71-11.18,2.23-3.1,7.94-5.01,11.35-1.47l11.89,12.36,49.03-42.8c4.36-3.81,9.24-3.6,12.76.4,3.99,4.54,2.04,9.12-2.44,12.83-19.02,15.74-37.13,31.73-55.19,48.43-2.82,2.61-7.37,1.86-9.88-.8Z"/>
  <path class="st9" d="M538.15,437.5c-20.55.65-35.35-16.33-33.74-35.55s19.12-32.43,38.52-28.86c16.55,3.04,28.15,17.35,27.03,33.71-1.14,16.56-13.78,30.14-31.8,30.71Z"/>
</svg>