<?xml version="1.0" encoding="UTF-8"?>
<svg id="Színtáradatok_réteg" xmlns="http://www.w3.org/2000/svg" xmlns:xlink="http://www.w3.org/1999/xlink" version="1.1" viewBox="0 0 700 700">
  <!-- Generator: Adobe Illustrator 30.2.1, SVG Export Plug-In . SVG Version: 2.1.1 Build 1)  -->
  <defs>
    <style>
      .st0 {
        fill: url(#linear-gradient2);
      }

      .st1 {
        fill: url(#linear-gradient1);
      }

      .st2 {
        fill: url(#linear-gradient9);
      }

      .st3 {
        fill: url(#linear-gradient3);
      }

      .st4 {
        fill: url(#linear-gradient6);
      }

      .st5 {
        fill: url(#linear-gradient8);
      }

      .st6 {
        fill: url(#linear-gradient7);
      }

      .st7 {
        fill: url(#linear-gradient5);
      }

      .st8 {
        fill: url(#linear-gradient4);
      }

      .st9 {
        fill: url(#linear-gradient18);
      }

      .st10 {
        fill: url(#linear-gradient13);
      }

      .st11 {
        fill: url(#linear-gradient12);
      }

      .st12 {
        fill: url(#linear-gradient15);
      }

      .st13 {
        fill: url(#linear-gradient16);
      }

      .st14 {
        fill: url(#linear-gradient11);
      }

      .st15 {
        fill: url(#linear-gradient10);
      }

      .st16 {
        fill: url(#linear-gradient17);
      }

      .st17 {
        fill: url(#linear-gradient14);
      }

      .st18 {
        fill: url(#linear-gradient19);
      }

      .st19 {
        fill: url(#linear-gradient23);
      }

      .st20 {
        fill: url(#linear-gradient22);
      }

      .st21 {
        fill: url(#linear-gradient21);
      }

      .st22 {
        fill: url(#linear-gradient20);
      }

      .st23 {
        fill: url(#linear-gradient);
      }
    </style>
    <linearGradient id="linear-gradient" x1="351.39" y1="730.34" x2="334.57" y2="-623.52" gradientUnits="userSpaceOnUse">
      <stop offset="0" stop-color="#006e46"/>
      <stop offset=".54" stop-color="#5db327"/>
      <stop offset="1" stop-color="#96cc22"/>
    </linearGradient>
    <linearGradient id="linear-gradient1" x1="351.13" y1="730.34" x2="334.31" y2="-623.52" xlink:href="#linear-gradient"/>
    <linearGradient id="linear-gradient2" x1="343.87" y1="730.43" x2="327.05" y2="-623.43" xlink:href="#linear-gradient"/>
    <linearGradient id="linear-gradient3" x1="492.74" y1="728.58" x2="475.92" y2="-625.28" xlink:href="#linear-gradient"/>
    <linearGradient id="linear-gradient4" x1="354.77" y1="730.29" x2="337.95" y2="-623.56" xlink:href="#linear-gradient"/>
    <linearGradient id="linear-gradient5" x1="362.1" y1="730.2" x2="345.28" y2="-623.65" xlink:href="#linear-gradient"/>
    <linearGradient id="linear-gradient6" x1="550.92" y1="727.86" x2="534.1" y2="-626" xlink:href="#linear-gradient"/>
    <linearGradient id="linear-gradient7" x1="314.52" y1="730.79" x2="297.71" y2="-623.06" xlink:href="#linear-gradient"/>
    <linearGradient id="linear-gradient8" x1="131.9" y1="733.06" x2="115.08" y2="-620.8" xlink:href="#linear-gradient"/>
    <linearGradient id="linear-gradient9" x1="532.05" y1="728.09" x2="515.23" y2="-625.77" xlink:href="#linear-gradient"/>
    <linearGradient id="linear-gradient10" x1="626.58" y1="726.92" x2="609.76" y2="-626.94" xlink:href="#linear-gradient"/>
    <linearGradient id="linear-gradient11" x1="206.19" y1="732.14" x2="189.38" y2="-621.72" xlink:href="#linear-gradient"/>
    <linearGradient id="linear-gradient12" x1="294.46" y1="731.04" x2="277.64" y2="-622.81" xlink:href="#linear-gradient"/>
    <linearGradient id="linear-gradient13" x1="156.46" y1="732.76" x2="139.64" y2="-621.1" xlink:href="#linear-gradient"/>
    <linearGradient id="linear-gradient14" x1="454.88" y1="729.05" x2="438.06" y2="-624.81" xlink:href="#linear-gradient"/>
    <linearGradient id="linear-gradient15" x1="494.92" y1="728.55" x2="478.1" y2="-625.3" xlink:href="#linear-gradient"/>
    <linearGradient id="linear-gradient16" x1="130.96" y1="733.07" x2="114.14" y2="-620.78" xlink:href="#linear-gradient"/>
    <linearGradient id="linear-gradient17" x1="79.59" y1="733.71" x2="62.78" y2="-620.15" xlink:href="#linear-gradient"/>
    <linearGradient id="linear-gradient18" x1="417.08" y1="729.52" x2="400.26" y2="-624.34" xlink:href="#linear-gradient"/>
    <linearGradient id="linear-gradient19" x1="366.35" y1="730.15" x2="349.54" y2="-623.71" xlink:href="#linear-gradient"/>
    <linearGradient id="linear-gradient20" x1="429.49" y1="729.37" x2="412.67" y2="-624.49" xlink:href="#linear-gradient"/>
    <linearGradient id="linear-gradient21" x1="233.33" y1="731.8" x2="216.51" y2="-622.06" xlink:href="#linear-gradient"/>
    <linearGradient id="linear-gradient22" x1="265.04" y1="731.41" x2="248.22" y2="-622.45" xlink:href="#linear-gradient"/>
    <linearGradient id="linear-gradient23" x1="417.31" y1="729.52" x2="400.49" y2="-624.34" xlink:href="#linear-gradient"/>
  </defs>
  <g>
    <path class="st23" d="M633.46,618.99c-94.3,10.16-188.81,12.46-283.46,12.75-94.66-.33-189.16-2.64-283.46-12.75,0,0,0-1.5,0-1.5,129.7-.72,294.95-.84,425.2-.5,35.23.01,106.48.26,141.73.5,0,0,0,1.5,0,1.5h0Z"/>
    <path class="st1" d="M589.02,639.75c-157.78,27.52-320.2,26.79-478.04,0,0,0,.08-1.5.08-1.5,119.4,5.39,238.94,9.31,358.43,4.81,39.82-1.33,79.64-2.9,119.44-4.81,0,0,.09,1.5.09,1.5h0Z"/>
  </g>
  <g id="tebz2n">
    <g>
      <path class="st0" d="M411.98,550.49l-190.84-.04-56.67-.06-122.92.03c-3.47,0-5.7-3.05-5.8-5.77s2.2-5.81,5.35-5.83l44.41-.3c-9.1-5.44-13.97-12.96-13.87-23.35.27-28.61,3.8-56.6,11.05-84.19,4.49-15.02,13.23-26.79,25.22-36.43,9.54-7.67,14.51-18.27,13.94-30.63-.41-8.73.61-17.11,5.04-24.77,1.15-1.99,4.43-5.1,6.76-5.09l34.41.21c4.67.03,8.07,6.92,8.43,10.82l1.19,12.84c1.35,14.65,7.06,27.82,11.87,41.66,6.24,17.94,9.2,35.97,12.06,54.76,3.18,20.41,5.25,40.19,5.06,60.83-.1,10.29-5.08,18.23-14.18,23.46l447.83.06c4.13,0,6.68,1.61,7.03,5.26.22,2.37-1.33,6.4-5.29,6.41l-230.09.13ZM123.4,411.08c18.88-13.66,21.86-33.09,21.82-54.91,0-2.56-2.96-5.11-5-5.1-1.8,0-4.95,2.47-5.15,4.81l-1.5,17.37c-1.26,14.59-10.31,25.65-22.33,34.64,3.92,1.9,7.97,2.71,12.16,3.2ZM99.5,523.13c-.29-5.61-1-11.07-.77-16.49.96-22.2,4.59-55.91,12.13-76.56,24.93,1.23,49.01-.14,72.72-6.63-.61-1.5-2.44-3.39-3.4-3.15-12.8,3.18-24.82,3.7-37.86,3.62-13.92-.09-27.14-.05-40.89-2.47-11.89,21.47-16.3,70.02-16.3,94.49,0,3.7,2.88,6.86,5.14,8.23,2.67,1.62,7.33,2.04,9.23-1.04Z"/>
      <path class="st3" d="M527.4,434.96l-2.8,19.84c-2.6,18.4-6.39,36.14-13.29,53.3-3.27,7.79-7.15,14.41-12.72,20.93l-27.05-.36c12.19-14.5,16.36-26.38,22.26-44.07,3.53-14.35,7.19-28.11,9.11-43.02-9.82,30.67-21.04,64.55-45.89,86.84l-27.45-.54c12.77-12.5,22.8-26.23,31.01-42.26,6.31-12.22,12.08-24.08,16.74-37.26-18.6,33.26-32.74,55.98-64.31,78.99l-27.11-.15c-4.02-.02-7.83-.39-12.21-1.09,16.01-8.21,29.8-18.11,42.51-30.96,27.63-28.45,44.4-60.01,60.19-96.44,36.4,5.26,66.9,8.74,103.17,5.28,9.57,18.18,15.57,36.58,20.55,56.03,5.79,22.6,8.15,45.18,5.09,68.4l-22.54.9c4.51-21.4.84-44.85-4.25-65.53.28,20.61,2.98,46.65-5.97,65.3l-23.51.4c2.52-6.86,4.98-12.92,5.56-20.23,1.64-20.77,1.09-41.46-2.41-61.73-1,24.71-.94,61.35-15.25,81.88l-25.03-.09c15.36-23.83,16.31-66.85,15.6-94.35Z"/>
      <path class="st8" d="M285.39,254.43c5.65,2.24,14.73,5.59,13.33,13.17-12.13-9.95-35.85-13.1-48.74-5.13-4.39,2.71-7.43,7.11-11.37,11.22-3.97-7.51,8.68-20.03,15.15-23.13s14.01-1.94,21.51-2.35c-7.22-9.19-18.14-11.85-28.62-9.58-9.55,2.07-18.07,8.93-21.77,19.05-2.24,6.12-1.06,12.67,2.17,18.42-2.14,2.97-4.07,5.7-5.37,8.97l202.57-.04c3.62,0,6.55,2.13,8.02,4.19,1.84,2.58,2.6,6.65,1.28,9.45l-4.78,10.16c-11.92,25.3-26.42,48.88-46.17,68.89-25.39,25.72-58.74,47.55-95.69,49.44-15.1.77-29.36-1.43-42.56-8.09-13.81-6.97-24.77-17.45-31.54-31.42-6.05-12.48-8.88-25.98-8.31-39.89.34-8.26.17-15.96,3.24-24.22,6.07,22.09,4.7,37.27,16.89,57.08,11.64,18.92,31.06,30.24,53.28,30.72,57.65,1.24,109.9-52.88,133.71-102.1l-204.1-.06c-3.24,0-6.85-3.98-6.89-6.53l-.13-9.64c-.07-5.53,4.89-8.95,10.47-7.89.06-3.63.79-6.44,2.69-10l-1.93-4.34c-2.77-15.87,4.8-31.02,18.67-39.09,17.11-9.95,37.96-6.23,51.97,8,6.2-6.4,14.31-8.67,23.14-6.67,5.06-15.62,18.45-26.19,35.04-27.81,15.07-1.47,29.2,4,38.68,16.17,10.38-9.41,23.89-13.45,37.57-11.56,17.43,2.41,30.84,15.01,33.16,32.92,15.75-2.13,30.6,6.67,35.46,21.48,2.33,7.1,1.14,13.78-2.42,20.52l6.97.17c5.04.12,8.15,4.04,8.15,8.95v7.87c0,3.15-2.47,7.42-6.32,7.42l-55.09-.03c4.36-8.47,6.87-15.72,5.03-23.99l27.65-.24c3.48-3.94,5.55-10.14,4.17-15.49-2.31-8.98-10.83-14.9-20.22-14.74-5.31.09-9.85,1.42-15.66,2.56l-.27-9.51c-.29-10.21-6.28-18.95-15.84-22.95-12.85-5.38-34.44-1.37-38.51,12.6,13.6,1.04,25.12,7.64,30.17,19.72,1.1,2.64,1.43,5.72-.64,7.88-15.9-19.29-36.45-20.04-57.58-9.73-4.56,2.22-7.71,6.93-11.82,9.47s-11.22-.26-15.84,3.42l-5.84,4.66c-2.55-3.51.3-6.81,3.39-9.26,5.35-2.24,11.06-2.64,17.36-2.37,6.13-13.44,17.77-21.09,32.38-23.89-8.61-18.8-31.55-24.44-47.46-13.21-7.29,5.15-10.01,13.26-11.84,21.99-1.29.43-4.47.29-6.02-.38-9.37-4.06-19.44-.11-23.97,8.78Z"/>
      <path class="st7" d="M248.78,504.32l-12.17-80.02c13.79,7.02,28.17,10.72,43.84,10.83l7.25,62.65c2.65,5.25,7.57,8.96,13.68,9l68.54.44,1.83-34.45,3.3-77.46c24.8-22.25,43.66-48.49,57.91-78.69h45.68s-8.82,66.15-8.82,66.15c-4.63,7.97-8.31,15.53-12.07,23.85-18.02,39.92-41.68,73.7-78.05,98.83-13.63,9.42-27.9,15.65-43.86,21.41-23.38.07-46.56.76-70.27-1.03-10.01-.75-17.01-11.96-16.8-21.53Z"/>
      <path class="st4" d="M559.71,354.89l-.55,8.15-55.08-4.83c-.3-4.07.68-9.19,3.39-12.27,3.05-3.46,7.4-4.79,12.85-4.93l11.79-94.11,24.29-195.21c.76-6.09,2.6-11.12,7.37-13.94,5.11-3.02,11.55-3.05,16.45.17,3.23,2.12,4.93,5.66,4.41,9.82l-22.65,182.94-13.79,113.1c6.83-.06,11.98,4.32,11.53,11.11Z"/>
      <path class="st6" d="M270.33,337.54l6.84,66.28c-12.03-.59-22.04-3.87-31.86-10.52-5.3-5.87-14.04-11.68-16.2-20.12-4.6-17.93-6.07-36.4-9.57-56.38l179.67-.09c-6.24,12.73-14.05,23.61-23.18,33.75l-.29-12.91h-105.42Z"/>
      <path class="st5" d="M117.4,292.17c-3.83,18.26-21.69,38.05-36.89,48.29-2.3,1.55-6.26.39-7.81-1.26-1.37-1.45-2.13-6.01-.22-7.86,12.97-12.52,21.9-27.93,25.11-46.05l-9.67-3.65.18-20.26c4.5-1.3,7.99-1.55,12.4-1.8l50.29-2.9c8.95-.52,18.2,1.23,24.63,7.57,9.24,9.11,8.1,23.98-.45,33.15-2.26,2.43-3.8,4.29-6.28,7.51l-35.22.04c-1.97-8.19-7.85-13.28-16.07-12.78Z"/>
      <path class="st2" d="M574.01,395.14c-31.29,3.24-61.96-.69-92.55-5.23,2.31-11.28,8.97-19.4,18.12-25.52l61.53,5.88c10.02.96,14.31,15.7,12.9,24.86Z"/>
      <path class="st15" d="M621.41,352.99l-6.5-27.32c-3.84-16.15-25.57-12.98-36.41-17.91l22.84-5.12c7.64-1.71,12.85-7.25,14.46-14.8l5.55-26.09,4.85,24.28c1.7,8.54,6.98,14.87,15.68,16.82l22.37,5.02-24.51,5.65c-5.98,1.38-10.75,6.06-12.1,12.02l-6.22,27.45Z"/>
      <path class="st14" d="M214.69,138.87c-14.22,3.53-11.91,26.18-16.6,35.95l-5.75-24.85c-3.59-15.52-22.05-12.25-33.48-17.32l22.77-5.31c5.72-1.33,10.16-6.1,11.44-11.76l5.33-23.64,5.71,23.91c1.39,5.81,5.67,10.37,11.5,11.73l23.04,5.35-23.96,5.94Z"/>
      <path class="st11" d="M303.22,188c1.59,5.67-.48,11.04-3.89,14.62s-8.81,5.5-14.25,4.76c-8.04-1.09-13.38-8.2-13.32-15.58.07-7.93,5.73-14.3,13.19-15.58,7.87-1.35,15.97,3.56,18.27,11.78ZM288,198.71c4.26-.06,7.13-3.62,7.33-6.94.23-3.67-2.99-6.8-6.9-7.16-4.44-.41-7.93,3-7.96,7.11-.03,3.53,3,7.06,7.54,6.99Z"/>
      <path class="st10" d="M171.38,327.11l-39.7.06c-.39-4.57-2.81-15.67,3.88-15.67h32.4c1.18,0,3.72,1.88,3.69,3.1l-.27,12.5Z"/>
      <path class="st17" d="M447.43,142.38c-1.34-5.23-2.26-9.56-3.19-14.44-2.4-12.5-14.51-9.18-23.97-12.82l14.4-3.24c11.82-2.66,9.13-14.62,12.9-24.17l3.23,14.89c1.06,4.9,4.5,8.19,9.47,9.33l13.97,3.2-15.08,3.41c-3.19.72-6.84,3.47-7.62,6.74l-4.1,17.11Z"/>
      <path class="st12" d="M488.1,219.85c-3.82-9.06-.57-19.59-12.03-22.22l-12.4-2.84,13.64-3.48c4.08-1.04,6.75-4.47,7.74-8.5l3.19-13.09,2.85,12.93c1,4.53,3.76,7.72,8.39,8.87l13.43,3.32-14.84,3.44c-3.5.81-5.87,3.83-6.65,7.19l-3.31,14.38Z"/>
      <path class="st13" d="M124.4,206.79l-2.88-10.85c-2.27-8.54-9.75-5.8-15.87-8.77l9.8-2.43c3.12-.77,5.53-3.2,6.37-6.3l2.59-9.63,2.72,10.28c.77,2.92,3.19,5.02,6.1,5.79l9.46,2.51c-6.16,2.95-13.87.32-15.87,8.96l-2.42,10.43Z"/>
      <path class="st16" d="M81.51,281.79l-11.21.33c-2.04.06-4.16-2.16-4.1-4.28l.46-14.93,14.81.02.04,18.86Z"/>
      <path class="st9" d="M407.4,173c4.45-1.41,8.77.61,10.32,4.6s.03,9.03-4.56,10.51c-3.85,1.24-8.97-.25-10.47-4.4s.2-9.29,4.7-10.71ZM408.41,177.97c-1.61.95-1.59,3.65-.4,4.44.87.57,3,.5,3.98-.16.84-.56.88-2.55.41-3.44s-3.06-1.39-3.99-.84Z"/>
      <path class="st18" d="M355.99,167.99c4.48-2.11,9.24.38,10.9,4.16,1.84,4.17.2,8.87-3.79,10.72s-8.6.42-10.62-3.06c-2.35-4.04-1.22-9.58,3.52-11.82ZM357.71,172.89c-1.47.96-1.71,3.72-.87,4.46.91.8,3.34,1.28,4.28.67s1.69-2.87,1.25-3.89c-.49-1.16-3.17-2.21-4.66-1.24Z"/>
      <path class="st22" d="M431.24,271.14c-4.72-4.78-9.55-6.65-15.85-8.36,5.15-2.76,10.75-1.83,14.67,1.5,1.88,1.59,2.73,4.28,1.18,6.85Z"/>
      <path class="st21" d="M225.39,209.3c1.45-.79,4.04.2,4.63,1.54s.04,3.99-1.33,4.75-4.22.26-4.9-1.04c-.75-1.43,0-4.38,1.61-5.25Z"/>
      <path class="st20" d="M261.86,212.82c.43,1.12-1,3.86-2.13,4.11s-3.48-.54-4.22-1.55c-.77-1.07.49-4.23,1.76-4.61l2.57-.77c.64-.19,1.41,1.25,2.02,2.83Z"/>
      <path class="st19" d="M409.11,230.94c.74-.57,3.11-.54,4-.11s.63,2.45-.03,3.34c-.58.78-2.67.7-3.68.28-.91-.38-1.1-2.9-.29-3.52Z"/>
    </g>
  </g>
</svg>