<?xml version="1.0" encoding="UTF-8"?>
<svg id="Layer_1" xmlns="http://www.w3.org/2000/svg" xmlns:xlink="http://www.w3.org/1999/xlink" version="1.1" viewBox="0 0 1920 1080">
  <!-- Generator: Adobe Illustrator 30.2.1, SVG Export Plug-In . SVG Version: 2.1.1 Build 1)  -->
  <defs>
    <style>
      .st0 {
        fill: url(#linear-gradient2);
      }

      .st1 {
        fill: url(#linear-gradient1);
      }

      .st2 {
        fill: url(#linear-gradient9);
      }

      .st3 {
        fill: url(#linear-gradient3);
      }

      .st4 {
        fill: url(#linear-gradient6);
      }

      .st5 {
        fill: url(#linear-gradient8);
      }

      .st6 {
        fill: url(#linear-gradient7);
      }

      .st7 {
        fill: url(#linear-gradient5);
      }

      .st8 {
        fill: url(#linear-gradient4);
      }

      .st9 {
        fill: #5a6068;
      }

      .st10 {
        fill: url(#linear-gradient12);
      }

      .st11 {
        fill: url(#linear-gradient11);
      }

      .st12 {
        fill: url(#linear-gradient10);
      }

      .st13 {
        fill: url(#linear-gradient);
      }
    </style>
    <linearGradient id="linear-gradient" x1="825.49" y1="529.22" x2="832.95" y2="174.91" gradientUnits="userSpaceOnUse">
      <stop offset="0" stop-color="#02378f"/>
      <stop offset="1" stop-color="#0185e4"/>
    </linearGradient>
    <linearGradient id="linear-gradient1" x1="2451.27" y1="251.71" x2="2451.77" y2="251.71" gradientUnits="userSpaceOnUse">
      <stop offset=".54" stop-color="#5db327"/>
      <stop offset="1" stop-color="#96cc22"/>
    </linearGradient>
    <linearGradient id="linear-gradient2" x1="1092.36" y1="371.02" x2="1183.36" y2="112.23" gradientUnits="userSpaceOnUse">
      <stop offset="0" stop-color="#006e46"/>
      <stop offset="1" stop-color="#5db327"/>
    </linearGradient>
    <linearGradient id="linear-gradient3" x1="811.8" y1="555.22" x2="1407.89" y2="106.22" gradientUnits="userSpaceOnUse">
      <stop offset="0" stop-color="#006e46"/>
      <stop offset=".54" stop-color="#5db327"/>
      <stop offset="1" stop-color="#96cc22"/>
    </linearGradient>
    <linearGradient id="linear-gradient4" x1="883.96" y1="481.09" x2="888.42" y2="195.27" xlink:href="#linear-gradient"/>
    <linearGradient id="linear-gradient5" x1="265.97" y1="867.46" x2="265.97" y2="614.52" xlink:href="#linear-gradient"/>
    <linearGradient id="linear-gradient6" x1="425.32" y1="867.46" x2="425.32" y2="614.52" xlink:href="#linear-gradient"/>
    <linearGradient id="linear-gradient7" x1="563.24" y1="867.46" x2="563.24" y2="614.52" xlink:href="#linear-gradient"/>
    <linearGradient id="linear-gradient8" x1="755.54" y1="867.46" x2="755.54" y2="614.52" xlink:href="#linear-gradient"/>
    <linearGradient id="linear-gradient9" x1="965.96" y1="867.46" x2="965.96" y2="614.52" xlink:href="#linear-gradient"/>
    <linearGradient id="linear-gradient10" x1="1235.22" y1="902" x2="1235.22" y2="162.47" gradientUnits="userSpaceOnUse">
      <stop offset="0" stop-color="#006e46"/>
      <stop offset=".54" stop-color="#5db327"/>
      <stop offset="1" stop-color="#96cc22"/>
    </linearGradient>
    <linearGradient id="linear-gradient11" x1="1469.29" y1="902" x2="1469.29" y2="162.47" xlink:href="#linear-gradient10"/>
    <linearGradient id="linear-gradient12" x1="1661.12" y1="902" x2="1661.12" y2="162.47" xlink:href="#linear-gradient10"/>
  </defs>
  <g>
    <path class="st13" d="M688.65,360.43c-13.16-60.29,108.33-138,271.35-173.57,22.22-4.85,44.06-8.66,65.25-11.48-44.19-1.86-96.69,2.83-151.86,14.86-141.33,30.84-246.65,98.2-235.24,150.47,4.82,22.1,29.73,37.95,67.56,46.57-8.98-7.78-14.85-16.75-17.06-26.86Z"/>
    <path class="st1" d="M872.65,410.87s2.9-119.71,77.76-177.6c74.85-57.89,131.92-65.33,203.45-87.55,71.54-22.22,125.8-49.4,127.04-53.1,1.23-3.7,10.94,146.59-96.25,230.54-102.37,80.17-261.27,66.6-261.27,66.6,0,0,39.73-86.05,252.69-193.43,0,0-202.27,35.72-303.41,214.55Z"/>
    <g>
      <path class="st0" d="M1432.78,337.05c-2.77-48.86-63.97-89.46-159.18-114.6,65.92,25.8,106.54,61.07,108.85,101.85,5.38,94.77-197.99,183.39-454.23,197.93-79.09,4.49-153.96,1.39-219.86-7.82,76.81,14.97,169.99,21.05,269.9,15.38,256.24-14.54,459.74-100.83,454.53-192.73Z"/>
      <path class="st3" d="M928.21,522.23c256.24-14.54,459.61-103.15,454.23-197.93-2.31-40.78-42.93-76.05-108.85-101.85-.36-.09-.72-.18-1.08-.28-.36,2.63-.89,5.54-1.69,8.8,32.81,20.68,52.01,45.05,53.54,71.92,5.21,91.9-198.28,178.19-454.53,192.73-104.8,5.95-202.18-1.04-281.05-17.65,32.4,14.99,72.97,27.34,119.56,36.42,65.9,9.21,140.77,12.31,219.86,7.82Z"/>
    </g>
    <path class="st8" d="M998.27,424.71c-199.07,20.99-366.75-21.69-374.51-95.32-7.76-73.63,147.33-150.33,346.4-171.31,33.84-3.57,61.69-5.24,93.08-5.29,3.57-1.55,11.48-2.92,13.82-4.14-58.63-4.7-124.28-3.91-193.12,3.35-234.44,24.71-417.09,115.04-407.95,201.75,9.14,86.71,206.61,136.97,441.05,112.25,174.51-18.4,320.29-73.15,379.67-135.7-59.9,44.13-170.01,80.86-298.44,94.4Z"/>
  </g>
  <g>
    <path class="st7" d="M369.51,822.63c-10.8,5.4-37.09,11.88-70.58,11.88-91.47,0-139.37-52.94-139.37-122.08,0-79.95,62.3-129.29,144.05-129.29,32.77,0,57.62,6.48,68.79,12.24l-12.24,44.66c-12.6-5.4-31.33-10.44-54.02-10.44-48.98,0-86.07,27.37-86.07,79.23,0,45.74,30.97,78.87,86.43,78.87,19.81,0,41.06-3.96,53.66-9.36l9.36,44.3Z"/>
    <path class="st4" d="M396.69,572.34h57.26v257.85h-57.26v-257.85Z"/>
    <path class="st6" d="M527.95,759.97c1.8,21.25,26.65,32.05,53.66,32.05,20.17,0,36.73-2.16,53.66-7.92l7.56,38.17c-20.17,8.28-43.22,12.24-69.15,12.24-63.38,0-100.48-36.01-100.48-90.75,0-39.61,27.01-93.99,95.07-93.99,63.74,0,84.99,49.34,84.99,89.67,0,8.28-1.08,16.92-2.16,20.53h-123.17ZM599.61,721.07c0-10.08-5.76-34.21-34.21-34.21-25.93,0-36.38,20.53-38.18,34.21h72.39Z"/>
    <path class="st5" d="M838.19,786.62c0,17.65,1.08,34.21,2.88,43.58h-51.86l-3.24-17.65h-1.44c-12.24,14.4-31.69,21.97-54.38,21.97-38.53,0-60.14-27.01-60.14-54.02,0-45.74,41.06-68.42,110.92-68.42v-1.8c0-7.56-3.96-21.97-34.93-21.97-19.09,0-40.33,6.84-52.58,14.05l-10.44-36.01c12.97-7.56,38.18-16.57,72.75-16.57,60.5,0,82.47,33.49,82.47,76.71v60.14ZM782.73,747.72c-33.49-.36-55.82,7.2-55.82,27.01,0,12.96,9,20.17,23.41,20.17,15.13,0,27.73-10.44,31.33-21.97.72-2.88,1.08-6.48,1.08-9.72v-15.49Z"/>
    <path class="st2" d="M877.19,711.35c0-22.69-.72-41.78-1.44-57.26h49.7l2.52,25.57h1.44c6.48-10.44,25.21-29.89,58.34-29.89,36.73,0,68.42,23.05,68.42,78.87v101.56h-57.26v-93.27c0-25.57-9.72-41.42-31.33-41.42-17.65,0-27.37,12.24-31.33,22.33-1.44,3.24-1.8,8.29-1.8,12.61v99.76h-57.26v-118.84Z"/>
    <path class="st12" d="M1130.96,830.19l-63.02-242.73h61.94l20.89,100.84c5.76,29.53,11.52,62.3,15.85,84.99h.72c3.96-25.21,10.08-55.1,16.57-85.71l21.97-100.12h64.82l20.53,104.8c5.4,28.45,9.72,54.02,13.32,79.23h.72c3.96-25.57,9.72-54.38,15.85-83.91l22.33-100.12h59.06l-69.15,242.73h-63.02l-22.69-113.08c-5.04-24.49-9-46.1-11.89-72.75h-.72c-3.96,26.65-7.92,48.26-14.05,73.11l-25.57,112.72h-64.46Z"/>
    <path class="st11" d="M1551.94,786.62c0,17.65,1.08,34.21,2.88,43.58h-51.86l-3.24-17.65h-1.44c-12.24,14.4-31.69,21.97-54.38,21.97-38.53,0-60.14-27.01-60.14-54.02,0-45.74,41.06-68.42,110.92-68.42v-1.8c0-7.56-3.96-21.97-34.93-21.97-19.09,0-40.33,6.84-52.58,14.05l-10.44-36.01c12.97-7.56,38.18-16.57,72.75-16.57,60.5,0,82.47,33.49,82.47,76.71v60.14ZM1496.48,747.72c-33.49-.36-55.82,7.2-55.82,27.01,0,12.96,9,20.17,23.41,20.17,15.12,0,27.73-10.44,31.33-21.97.72-2.88,1.08-6.48,1.08-9.72v-15.49Z"/>
    <path class="st10" d="M1625.11,654.09l29.17,84.99c3.24,10.44,7.2,24.85,10.09,33.85h1.08c2.88-9.72,6.12-23.77,9-34.21l24.13-84.63h62.66l-42.49,109.48c-30.97,82.11-49.34,108.04-69.51,123.89-20.17,16.2-41.06,21.61-56.9,23.05l-11.16-47.9c6.84-1.08,15.12-3.24,24.13-7.56,9-3.96,19.45-13.32,25.21-22.33,1.8-2.88,3.24-5.76,3.24-7.92s-.36-5.04-2.88-10.08l-69.87-160.62h64.1Z"/>
  </g>
  <g>
    <path class="st9" d="M621.34,973.02c4.03,2.11,10.47,4.23,17.02,4.23,7.05,0,10.78-2.92,10.78-7.35s-3.22-6.65-11.38-9.47c-11.28-4.03-18.73-10.27-18.73-20.14,0-11.58,9.77-20.35,25.68-20.35,7.75,0,13.29,1.51,17.32,3.42l-3.42,12.29c-2.62-1.31-7.55-3.22-14.1-3.22s-9.87,3.12-9.87,6.55c0,4.33,3.73,6.24,12.59,9.57,11.98,4.43,17.52,10.68,17.52,20.24,0,11.38-8.66,21.05-27.3,21.05-7.75,0-15.41-2.11-19.24-4.23l3.12-12.59Z"/>
    <path class="st9" d="M721.67,989.94c-20.04,0-31.93-15.21-31.93-34.54,0-20.35,13.09-35.55,33.04-35.55s32.23,15.61,32.23,34.34c0,22.36-13.4,35.75-33.24,35.75h-.1ZM722.47,977.76c10.37,0,16.31-9.77,16.31-23.06,0-12.19-5.74-22.66-16.31-22.66s-16.52,10.27-16.52,22.96,6.14,22.76,16.42,22.76h.1Z"/>
    <path class="st9" d="M784.72,920.95h15.31v54.99h26.99v12.89h-42.3v-67.88Z"/>
    <path class="st9" d="M868.29,920.95v38.97c0,11.78,4.53,17.73,12.29,17.73s12.49-5.64,12.49-17.73v-38.97h15.31v38.07c0,20.95-10.57,30.92-28.3,30.92s-27.09-9.57-27.09-31.12v-37.87h15.31Z"/>
    <path class="st9" d="M953.61,933.85h-18.33v-12.89h52.17v12.89h-18.53v54.99h-15.31v-54.99Z"/>
    <path class="st9" d="M1036.65,920.95v67.88h-15.31v-67.88h15.31Z"/>
    <path class="st9" d="M1101.47,989.94c-20.04,0-31.93-15.21-31.93-34.54,0-20.35,13.09-35.55,33.03-35.55s32.23,15.61,32.23,34.34c0,22.36-13.4,35.75-33.23,35.75h-.1ZM1102.28,977.76c10.38,0,16.32-9.77,16.32-23.06,0-12.19-5.74-22.66-16.32-22.66s-16.52,10.27-16.52,22.96,6.14,22.76,16.42,22.76h.1Z"/>
    <path class="st9" d="M1164.49,988.84v-67.88h17.93l14.1,24.88c4.03,7.15,7.96,15.61,11.08,23.26h.2c-.91-8.96-1.21-18.13-1.21-28.4v-19.74h14.1v67.88h-16.12l-14.5-26.19c-4.03-7.35-8.56-16.01-11.78-23.97h-.4c.5,9.06.71,18.63.71,29.71v20.44h-14.1Z"/>
    <path class="st9" d="M1258.57,973.02c4.03,2.11,10.48,4.23,17.02,4.23,7.05,0,10.77-2.92,10.77-7.35s-3.22-6.65-11.38-9.47c-11.28-4.03-18.73-10.27-18.73-20.14,0-11.58,9.77-20.35,25.68-20.35,7.75,0,13.29,1.51,17.32,3.42l-3.42,12.29c-2.62-1.31-7.55-3.22-14.1-3.22s-9.87,3.12-9.87,6.55c0,4.33,3.73,6.24,12.59,9.57,11.99,4.43,17.52,10.68,17.52,20.24,0,11.38-8.66,21.05-27.29,21.05-7.75,0-15.41-2.11-19.24-4.23l3.12-12.59Z"/>
    <polygon class="st9" points="557.14 962.91 394.82 955.35 557.14 947.8 557.14 962.91 557.14 962.91"/>
    <polygon class="st9" points="1362.86 947.8 1525.18 955.35 1362.86 962.91 1362.86 947.8 1362.86 947.8"/>
  </g>
</svg>