<?xml version="1.0" encoding="UTF-8"?>
<svg id="Színtáradatok_réteg" xmlns="http://www.w3.org/2000/svg" xmlns:xlink="http://www.w3.org/1999/xlink" version="1.1" viewBox="0 0 700 700">
  <!-- Generator: Adobe Illustrator 30.2.1, SVG Export Plug-In . SVG Version: 2.1.1 Build 1)  -->
  <defs>
    <style>
      .st0 {
        fill: url(#linear-gradient2);
      }

      .st1 {
        fill: url(#linear-gradient1);
      }

      .st2 {
        fill: url(#linear-gradient3);
      }

      .st3 {
        fill: url(#linear-gradient5);
      }

      .st4 {
        fill: url(#linear-gradient4);
      }

      .st5 {
        fill: url(#linear-gradient);
      }
    </style>
    <linearGradient id="linear-gradient" x1="347.58" y1="703.87" x2="347.58" y2="-1115.25" gradientUnits="userSpaceOnUse">
      <stop offset="0" stop-color="#006e46"/>
      <stop offset=".54" stop-color="#5db327"/>
      <stop offset="1" stop-color="#96cc22"/>
    </linearGradient>
    <linearGradient id="linear-gradient1" x1="197.11" y1="703.87" x2="197.11" y2="-1115.25" xlink:href="#linear-gradient"/>
    <linearGradient id="linear-gradient2" x1="565.11" y1="703.87" x2="565.11" y2="-1115.23" xlink:href="#linear-gradient"/>
    <linearGradient id="linear-gradient3" x1="316.48" y1="703.87" x2="316.48" y2="-1115.25" xlink:href="#linear-gradient"/>
    <linearGradient id="linear-gradient4" x1="350" y1="711.8" x2="350" y2="-1203.51" xlink:href="#linear-gradient"/>
    <linearGradient id="linear-gradient5" x1="350" y1="711.8" x2="350" y2="-1203.51" xlink:href="#linear-gradient"/>
  </defs>
  <g>
    <path class="st5" d="M541.48,366.06c4.39,3.46,6.25,5.61,11.98,4.4,12.56-2.65,3.1-11.87,21.65-8.98l2.19,7.4c8.61,3.47,12.29,5.85,18.63-.9,3.46-1.4,8.45,2.48,10.69,4.93l1.07,7.17c2.28,2.49,7.13,6.78,10.33,6.76,5.03-.77,8.23-2.05,11.58,1.15,3.72,3.57,3.16,6.41,1.95,11.55-.85,3.65,3.11,10.26,6.79,10.9,3.89.67,6.71.54,8.84,3.09,8.01,9.59-4.31,8.67-1.16,20.93,2.87,11.16,10.33,2.89,11.39,13.25.39,3.79-.57,6.94-4.33,7.79-3.98.91-4.89,4.68-5.67,7.85-1.42,5.72.9,7.48,4.55,11.13,2.97,2.97-.23,11.6-4.48,12.38-6.07,1.11-11.13,4.9-10.3,11.56l3.65,5.58c.2,4.69-4.82,9.75-9.48,8.54-5.32-1.38-8.94-.52-12.8,3.44-1.71,1.75-3.73,3.94-2.44,6.48.75,1.47,1.53,3.75,1.35,5.02s-2.3,3.15-3.47,3.91c-10.73,6.89-7.96-5.65-22.3.47l-3.33,1.42c-.72.31-.31,3.61.7,3.61l95.72.28c5.25.02,7.27,4,7.27,7.47,0,5.15-3.7,6.6-8.89,6.64-166.25,1.35-332.12,4.08-498.66,1.63l-172.47-2.53c-3.54-.05-6.3-1.36-7.6-3.35-6.56-10.05,12.87-22.92,21.19-27.16,1.55-10.61,5.54-19.53,12.87-27.65,6.49-7.19,13.27-13.42,23.76-14.06.81-6.07,5.96-9.02,8.64-13.33,3.78-6.08,5.06-13.47,10.4-18.6,7.26-6.99,16.57-10.39,26.84-11.97,7.59-29.47.47-59.53-15.82-84.51-1.93-2.96-3.7-5.85-2.12-9.28,1.03-2.24,4.62-5.36,8.05-4.44l32.82,8.78,57.9,16.33c2.94.83,5.87,3.22,6.92,6,3.64,9.65,6.38,18.72,9.44,29.14l49.06-26.68,1.43-12.38,80.55-28.65,5.3-7.53c4.47-6.36,12.17-9.24,19.58-8.95s13.38,4.51,18.8,11.18l21.37-98.04c3.5-16.07,15.03-25.68,31.75-25.87l140.93-1.56c1.67-.02,1.77-6.59.02-6.72-38.72-2.99-76.79-3.78-115.61-2.65-18.6.54-35.96,1.72-54.17,5.13-4.1-2.49-5.26-8.86-3.63-13.38,1.43-3.95,5.72-7.36,11.36-7.4l167.89-1.25c8.41-.06,14.42,6.79,14.38,14.15l-.06,11.77c-.04,6.5-4.73,10.54-10.89,12.73l-.09,83.29,29.39,2.16.44-18.51c.39-16.24,17.06-24.87,31.17-21.72,4.47,1,5.64,6.36,4.74,9.67-1.17,4.28-4.94,5.95-9.68,6.01-3.64.05-9.77,1.43-10.04,6.02-.41,7.01-.24,13.95-.12,21.17,14.57,4.73,34.85,4.62,35.08,23.68l.59,49.84.28,38.38c-3.8,2.18-12,8.22-14.59,1.99-11.06-26.58-31.78-43.94-58.08-54.43-21.25-8.48-51.21-5.54-71.87,4.33-22.11,10.55-39.69,28.71-49.24,51.48-8.47,20.2-8.51,42.14-1.49,62.69.73,2.15,1.04,3.95,1.22,6.48l-88.27-.89-.31-15.36c-.6-29.41-21.31-54.9-49.79-62.84-24.3-6.78-49.19,1.53-66.14,20.05-15.79,17.26-21.85,41.4-17.38,64.22l10.68,9.17c-2.08-10.06-3.76-19.16-3.04-29.04,1.52-20.98,12.65-40.02,31.09-50.36,30.62-17.15,68.39-2.95,81.54,29.56,14.66,36.25-4.15,80.43-44.21,89.31-1.57.59-1.51.7.45.84l214.01-.47c-.06-4.46-3.87-6.4-7.32-7.99-9.57-4.4-7.84,6.33-18.09-1.37-3.34-2.51-2.3-5.57-2.89-9.65-.47-3.28-5.4-8.03-8.78-8.04-3.9-.02-7.07,1.22-9.86-1.13-10.62-8.95,2.61-8.14-3.01-21.17-1.79-4.15-3.87-5.3-8.62-6.07-4.51-.73-6.54-8.18-4.72-12.13l5.51-4.84c1.36-16.44-2.76-13.7-6.57-16.76-3.04-2.44-2.71-11.26,1.08-12.51,5.38-1.77,7.89-2.78,9.31-8.3,1.28-4.95.78-7.44-2.48-11.63-2.88-3.7,2.42-11.73,6.96-11.28,5.13.51,7.41-1.21,10.29-4.51,8.5-9.73-5.07-9.46,6.38-18.43,7.27-5.69,7.42,7,21.68-4.21l.74-7.18c1.91-2.67,8.93-6.12,12.13-3.59ZM454.39,338.48c12.08-9.28,24.1-17.46,36.88-25.21,2.61-1.48,3.54-3.55,3.56-6.63l.71-86.69-51.89.04c-12.02,0-21.6,8.5-23.83,20.1l-21.68,100.39,43.39,2.64c4.92.3,9.29-.15,12.86-4.65ZM561.78,293.82l.53-73.67-50.43-.23-.42,83.29c16.81-5.44,32.9-8.3,50.32-9.38ZM583.35,340.48c26.05,5.15,47.72,18.93,65.14,38.68l-.09-52.26c0-3.65-2.13-6.02-5.6-6.99-31.54-7.98-64.27-10.49-96.52-4.9-53.13,9.21-95.62,46.65-109.68,98.37l18,.05c4.17-8.26,7.5-15.19,12.02-22.47,24.61-39.56,70.36-59.65,116.72-50.48ZM371.01,334.35c0-5.88-4.77-10.65-10.65-10.65s-10.65,4.77-10.65,10.65,4.77,10.65,10.65,10.65,10.65-4.77,10.65-10.65ZM245.58,424.17l2.89-16.47c1.66-1.55,5.79-2.12,7.93-1.56l3.5,5.13c15.89-7.87,31.62-14.71,46.86-23.88l42.73-25.72c-7.1-3-11.09-7.85-12.75-15.12l-42.66,15.55-22.09,7.83,4.55,10.49c1.7,3.92,1.65,10.63-2.74,12.89l-28.47,14.67-34.16,18.44,1.17,26.39c7.52-12.85,18.26-23.13,33.23-28.64ZM413.26,412.09c4.41-20.01,11.11-36.88,22.54-53.01l-39.52-2.26,2.12,55.57c5.16.29,9.96.38,14.87-.3ZM186.64,469.48c4.12-29.75-1.98-63.4-11.29-89.58l-53.22-16.32,4.76,17.32c5.2,18.93,3.04,38.11-.37,57.13,10.5,2.51,18.52,7.59,23.49,16.44,14.67-1.63,26.37,4.75,36.63,15ZM209.51,416.04l50.24-27.1c-.99-3.56-1.68-5.63-2.92-8.73l-15.55,8.04-33.93,18.17,2.15,9.62ZM614.17,452.16c0-27.07-21.95-49.02-49.04-49.02s-49.04,21.95-49.04,49.02,21.95,49.02,49.04,49.02,49.04-21.95,49.04-49.02ZM349.23,469.78c0-17.99-14.59-32.58-32.59-32.58s-32.59,14.59-32.59,32.58,14.59,32.58,32.59,32.58,32.59-14.59,32.59-32.58ZM254.54,519.69c-2.09-9.33-6.7-16.7-14.3-21.01-8.15-4.62-17.63-4.93-26.44-.28-6.52,3.44-12.63,10.78-13.32,19.66l3.13,10.97c-8.43-6.92-17.68-7.77-28.19-4.77,4.32-6.04,11.49-11.11,12.02-19.09.49-7.34-4.26-15.47-8.47-21.13-9.19-12.33-23.98-16.9-38.42-12.46-1.85-4.98-3.04-10.14-6.94-13.54-9.51-8.28-24.28-11.59-35.39-4.78-11.67,7.15-18.03,20.29-20.67,33.24,7.55,4.98,14.16,9.07,19.56,15.36-13.97-5.63-28.62-12.4-41.84-2.98-14.03,10-8.84,28-10.36,28.29l-3.03.58c-5.52,1.05-10.76,3.78-11.53,9.96l250.24,1.23c1.37-6.93-2.46-13.05-7.11-16.67-5.7-4.45-11.83-4.26-18.95-2.56ZM570.22,536.47c-4.33-2.18-9.36-2.66-13.1,0h13.1Z"/>
    <path class="st1" d="M205.3,247.54l-.64,28.59c-.08,3.81-5.29,5.03-7.95,4.97-2.58-.06-7.41-1.81-7.45-5.34l-.31-28.19-16.64,14.17c-2.68,2.28-8.05.45-10.01-1.59-2.67-2.78-2.58-6.99-.15-10.39l27.01-24.45-.07-39-35.62,20.08-7.07,32.76c0,4.66-3.24,7.71-7.43,8.23-3.55.45-9.04-1.83-8.62-6.66.67-7.82,2.82-14.79,4.16-23.24l-23.23,12.75c-3.95,2.17-8.63.53-10.83-3.13-2.03-3.38-1.07-8.45,2.76-10.66l23.05-13.28c-9.62-5.39-27.18-4-24.67-16,.82-3.91,4.94-6.77,9.64-5.9l34.41,10.84,34.71-19.76-34.65-19.89-33.24,10.34c-4.34,1.17-8.58-.02-10.3-4.27-1.21-2.99-.9-8.62,3.26-10.01l20.93-7.02c-7.9-4.89-14.51-8.7-21.96-12.76-4.06-2.22-6.13-5.95-4.52-10.36,1.36-3.73,6.63-6.74,10.92-4.39l23.75,13.07-4.31-22.42c-.92-4.77,4.52-7.54,7.95-7.52,5.11.04,7.55,3.37,8.51,8.15l6.56,32.68,35.82,20.46.13-39.32-26.43-24.13c-2.9-2.55-2.93-6.99-.9-10.05,1.54-2.33,7.03-4.84,10.31-2.46,5.82,4.22,10.47,9.06,16.72,14.13l.45-28.79c.06-3.62,4.67-5.59,7.4-5.67s7.99,1.51,8.05,5.28l.51,28.91,16.21-13.73c2.67-2.26,8.17-.51,9.95,1.42,2.64,2.85,2.57,7.02.32,10.48l-26.67,24.26.1,39.69,35.69-20.37,7-33.59c.4-5.31,5.21-7.95,9.65-7.24,5.61.9,7.18,5.95,6.07,11.3l-3.78,18.27,23.32-12.53c3.53-1.9,7.79-.47,10.03,2.27,2.11,2.58,2.81,8.34-.92,10.55l-24.39,14.46c6.56,2.4,12.1,4.26,18.27,5.92,5.13,1.38,7.95,5.44,6.49,10.69-1.32,4.74-6.19,6.29-11.18,4.71l-32.68-10.33-28.5,15.9c-2.22,1.24-4.12,2.65-6.14,4.2l34.45,19.47,34.08-10.41c4.43-1.35,8.75.79,10.15,5.06,1.24,3.76-.67,8.53-5.17,9.96l-19.66,6.27c7.3,4.58,13.92,8.36,21.29,12.4,4.06,2.22,6.49,5.49,5.21,9.96-1.03,3.63-6.2,7.6-10.46,5.31l-24.01-12.96c.05,8.76,7.02,22.06,1.96,27.33-1.34,1.39-4.62,2.31-6.91,2.14-4.28-.33-7.04-3.12-7.16-7.24l-6.83-33.1-35.86-20.54-.23,38.92,26.48,24.24c2.43,2.99,2.87,7.2.2,10.27-1.85,2.13-7.31,4.14-10.34,1.55l-16.04-13.7Z"/>
    <ellipse class="st0" cx="565.11" cy="452.03" rx="22.19" ry="22.18"/>
    <ellipse class="st2" cx="316.48" cy="469.67" rx="16.05" ry="16.05"/>
  </g>
  <g>
    <path class="st4" d="M633.46,622.77c-94.3,10.16-188.81,12.46-283.46,12.75-94.66-.33-189.16-2.64-283.46-12.75,0,0,0-1.5,0-1.5,129.7-.72,294.95-.84,425.2-.5,35.23.01,106.48.26,141.73.5,0,0,0,1.5,0,1.5h0Z"/>
    <path class="st3" d="M589.02,643.53c-157.78,27.52-320.2,26.79-478.04,0,0,0,.08-1.5.08-1.5,119.4,5.39,238.94,9.31,358.43,4.81,39.82-1.33,79.64-2.9,119.44-4.81,0,0,.09,1.5.09,1.5h0Z"/>
  </g>
</svg>