<?xml version="1.0" encoding="UTF-8"?>
<svg id="Színtáradatok_réteg" xmlns="http://www.w3.org/2000/svg" xmlns:xlink="http://www.w3.org/1999/xlink" version="1.1" viewBox="0 0 700 700">
  <!-- Generator: Adobe Illustrator 30.2.1, SVG Export Plug-In . SVG Version: 2.1.1 Build 1)  -->
  <defs>
    <style>
      .st0 {
        fill: url(#linear-gradient);
      }
    </style>
    <linearGradient id="linear-gradient" x1="350" y1="613.98" x2="350" y2="-50.7" gradientUnits="userSpaceOnUse">
      <stop offset="0" stop-color="#02378f"/>
      <stop offset="1" stop-color="#0185e4"/>
    </linearGradient>
  </defs>
  <path class="st0" d="M162.61,153.07h374.78c20.58,0,39.29,8.42,52.86,21.97,13.54,13.54,21.97,32.28,21.97,52.86v244.22c0,20.58-8.42,39.29-21.97,52.86-13.54,13.54-32.28,21.97-52.86,21.97H162.61c-20.58,0-39.29-8.42-52.86-21.97-13.54-13.54-21.97-32.26-21.97-52.86v-244.22c0-20.58,8.42-39.29,21.97-52.86,13.54-13.54,32.28-21.97,52.86-21.97ZM114.75,493.84l163.3-145.13L115.64,204.36c-3.58,7.1-5.62,15.11-5.62,23.55v244.22c0,7.73,1.69,15.09,4.73,21.73v-.02ZM294.76,363.56l-166.68,148.15c9.25,8.07,21.34,13,34.51,13h374.78c14.46,0,27.61-5.93,37.14-15.45,1.32-1.32,2.6-2.74,3.78-4.21l-159.19-141.48-17.71,15.74c-12.74,11.33-28.61,17-44.48,17s-31.73-5.67-44.48-17l-17.71-15.74h.04ZM435.83,348.71l152.69,135.69c.96-3.93,1.45-8.05,1.45-12.26v-244.22c0-4.97-.69-9.81-2.02-14.39l-152.12,135.19ZM129.6,187.04l172.24,153.1.22.17.22.2,24.96,22.18c8.51,7.55,19.1,11.35,29.69,11.35s21.19-3.78,29.72-11.35l24.96-22.18.22-.2,165.23-146.85c-.8-.93-1.65-1.85-2.54-2.71-9.53-9.53-22.68-15.45-37.14-15.45H162.59c-12.46,0-23.96,4.41-33.02,11.72l.02.02Z"/>
</svg>