<?xml version="1.0" encoding="UTF-8"?>
<svg id="Színtáradatok_réteg" xmlns="http://www.w3.org/2000/svg" xmlns:xlink="http://www.w3.org/1999/xlink" version="1.1" viewBox="0 0 700 700">
  <!-- Generator: Adobe Illustrator 30.2.1, SVG Export Plug-In . SVG Version: 2.1.1 Build 1)  -->
  <defs>
    <style>
      .st0 {
        fill: url(#linear-gradient2);
      }

      .st1 {
        fill: url(#linear-gradient1);
      }

      .st2 {
        fill: url(#linear-gradient3);
      }

      .st3 {
        fill: url(#linear-gradient5);
      }

      .st4 {
        fill: url(#linear-gradient4);
      }

      .st5 {
        fill: url(#linear-gradient);
      }
    </style>
    <linearGradient id="linear-gradient" x1="350" y1="640.78" x2="350" y2="-97.69" gradientUnits="userSpaceOnUse">
      <stop offset="0" stop-color="#02378f"/>
      <stop offset="1" stop-color="#0185e4"/>
    </linearGradient>
    <linearGradient id="linear-gradient1" x1="234.3" y1="640.78" x2="234.3" y2="-97.69" xlink:href="#linear-gradient"/>
    <linearGradient id="linear-gradient2" x1="462.67" y1="640.78" x2="462.67" y2="-97.69" xlink:href="#linear-gradient"/>
    <linearGradient id="linear-gradient3" x1="350.45" y1="640.78" x2="350.45" y2="-97.69" xlink:href="#linear-gradient"/>
    <linearGradient id="linear-gradient4" x1="350.21" y1="640.78" x2="350.21" y2="-97.69" xlink:href="#linear-gradient"/>
    <linearGradient id="linear-gradient5" x1="350.75" y1="640.78" x2="350.75" y2="-97.69" xlink:href="#linear-gradient"/>
  </defs>
  <path class="st5" d="M463.32,466.78c-72.1,41.7-160.4,39.17-230.43-4.99-58.6-36.94-94.65-97.24-97.88-167.07-2.74-59.32,21.19-115.94,64.19-156.47,81.46-76.79,209.75-79.05,293.66-5.67,46.02,40.24,72.97,98.16,72.32,159.46-.77,73.62-38.11,137.87-101.86,174.74ZM416.56,467.05c78.66-25.36,130.09-96.96,130.37-179.07.19-56.38-22.76-110.23-65.47-147.67-39.38-34.52-89.76-52.27-142.45-49.54-104.33,5.39-187.79,88.25-185.14,194.67,1.69,68.02,38.09,129.59,96.89,163.5,50.15,28.92,110.4,35.97,165.8,18.11Z"/>
  <path class="st1" d="M275.09,618.39l-48.31-52.74-72.52,23.86c-2.31.76-6.11-.49-7.53-1.7-1.99-1.7-2.87-5.09-2.29-8.23l47.65-131.29c36.63,33.86,81.44,54.26,132.25,60.11l-34.96,107.39c-.84,2.59-4.17,4.37-6.04,4.9-2.4.68-6.18-.04-8.25-2.3Z"/>
  <path class="st0" d="M423.72,615.32c-2.7,2.99-5.88,5.03-9.18,4.71-2.71-.27-6.69-2.39-7.79-5.74l-34.67-104.98c50.51-4.58,97.79-23.69,135.48-58.86l45.44,129.16c.9,2.55-.48,6.32-1.93,7.77s-5.52,3.03-8.17,2.15l-73.99-24.32-45.19,50.11Z"/>
  <path class="st2" d="M363.31,463.14c-52.83,2.67-103.78-15.93-140.99-52.5-47.51-46.69-66.19-115.41-47.02-179.5,12.64-42.26,41.55-77.72,79.33-100.47,59.08-35.58,134.44-34.93,192.78,1.78,46.67,29.36,78.07,78.03,84.41,132.92,11.85,102.62-64.34,192.49-168.51,197.76ZM486.46,360.66c16.78-28.15,23.41-60.8,20-93.11-9.01-85.35-85.12-147.09-170.38-139.83-86.9,7.39-152.22,82.64-141.89,170.42,6.89,58.58,47.24,108.4,102.71,128.24,71.52,25.59,150.68-.47,189.56-65.72Z"/>
  <path class="st4" d="M408.79,407.7c-42.62,18.52-91.73,15.16-131.21-8.47-49.93-29.88-76.32-88.76-63.78-145.47,15.65-70.76,83.45-116.1,154.71-106.54,62.72,8.41,112.52,57.89,120.19,121,7.18,59.01-24.91,115.57-79.92,139.48ZM473.06,265.63c-6.33-53.73-47.59-96.18-100.5-105.96-57.97-10.71-115.9,20.21-138.07,75.16-17.79,44.09-6.57,94.73,26.77,128.5,23.65,23.95,54.91,37.2,88.83,37.28,73.1.17,131.64-61.33,122.97-134.99Z"/>
  <path class="st3" d="M268.79,297.88c-5.98-5.74-9.7-13.18-4.16-20.5,2.63-3.48,6.74-7.25,10.21-10.36,5.74-5.15,13.8-4.57,19.63.17l22.59,18.36,15.66,12.26,42.13-42.33,33.29-33.35c3.83-3.84,6.93-7.32,12.21-7.67s9.92,1.99,13.43,5.27c8.28,7.73,7.08,16.8.37,24.88l-76.08,91.72c-4.07,4.91-7.69,9.3-11.89,13.78-6.34,6.75-16.11,6.58-22.81.15l-54.59-52.38Z"/>
</svg>