<?xml version="1.0" encoding="UTF-8"?>
<svg id="Színtáradatok_réteg" xmlns="http://www.w3.org/2000/svg" xmlns:xlink="http://www.w3.org/1999/xlink" version="1.1" viewBox="0 0 700 700">
  <!-- Generator: Adobe Illustrator 30.2.1, SVG Export Plug-In . SVG Version: 2.1.1 Build 1)  -->
  <defs>
    <style>
      .st0 {
        fill: url(#linear-gradient2);
      }

      .st1 {
        fill: url(#linear-gradient1);
      }

      .st2 {
        fill: url(#linear-gradient3);
      }

      .st3 {
        fill: url(#linear-gradient);
      }
    </style>
    <linearGradient id="linear-gradient" x1="358.55" y1="721.23" x2="358.55" y2="-429.11" gradientUnits="userSpaceOnUse">
      <stop offset="0" stop-color="#02378f"/>
      <stop offset="1" stop-color="#0185e4"/>
    </linearGradient>
    <linearGradient id="linear-gradient1" x1="350" x2="350" y2="-429.11" xlink:href="#linear-gradient"/>
    <linearGradient id="linear-gradient2" x1="526.83" y1="721.23" x2="526.83" y2="-429.11" xlink:href="#linear-gradient"/>
    <linearGradient id="linear-gradient3" x1="178.65" y1="721.23" x2="178.65" y2="-429.11" xlink:href="#linear-gradient"/>
  </defs>
  <path class="st3" d="M253.32,498.36c7.61-30.34-3.42-61.94-27.22-80.88-22.8-18.14-53.92-22.88-80.64-10.42-18.14,8.46-32.3,23.08-39.95,41.5-6.59,15.88-6.75,32.32-3.42,49.3l-14.7.3c-3.58.07-9.68-2.9-9.7-7.33l-.19-48.73c-.02-4.99,3.57-7.72,7.46-9.48l26.69-12.1.18-45.57c.04-9.77,6.09-21.77,16.31-24.4l111.1-28.66c4.06-8.24,10.84-13.91,18.52-15.92,9.67-2.53,18.26-.33,26.8,5.37l11.47-52.08,14.93-65.76c2.48-10.94,11.99-18.49,22-21.4,5.68-1.65,10.49-2.06,16.48-2.06l172.05.02.2-10.6c-47.52-3.47-94.48-5.02-142.31-3.87-20.26.49-39.4,1.55-59.07,5.28-2.68.51-6.47,1.89-8.72.83-4.77-2.24-5.81-7.54-5.19-12.31,1.17-9.08,11.3-11.82,19.88-11.82l185.85.04c11.47,0,30.86-1.8,31.67,12.9.81,14.75,2.7,28.3-13.86,31.94l-.02,89.05,35.22,2.15.15-26.36c.11-20.02,25.31-26.19,40.46-22.02,4,3.48,3.79,12.48.88,16.59l-15.82,2.49c-2.32.37-6.18,3.2-6.18,5.74l.05,26.22c14.61,2.7,28.43,5.23,42.22,10.04,8.02,2.8,12.65,9.91,12.65,18.51l.02,82.16c-3.82.94-7.75,1.3-10.84.63-6.49-7.96-12.27-15.02-19.68-21.85-53.01-48.83-135-46.68-179.22,11.05-24.69,32.23-30.34,74.98-14.81,112.62,1.2,2.9,1.86,5.65,2.49,8.94l-164.2-.04ZM422.63,296.83l.95-23.84.02-76.59c0-1.98-.97-4.58-1.98-6.21l-70.02.13c-7.57.01-15.28,4.88-16.97,12.54l-26.78,121.23h83.53c9.6-10.47,19.15-19.04,31.26-27.28ZM506.56,271.35l.09-81.04-63.83-.02-.07,94.59c20.15-9.52,41.05-13.58,63.8-13.52ZM529.99,315.26c34.79,2.29,65.8,16.84,91.43,40.47l.08-49.2c0-4-2.94-6.41-6.71-6.58-35.77-7.7-71.83-11.35-108.49-7.8-24.94,2.42-48.23,10.67-68.72,24.66-30.26,20.67-55.77,58.49-61.73,95.52,5.9.99,11.65,1.69,18.2,2.09,14.85-61.72,71.91-103.37,135.93-99.16ZM280.68,332.27c0-7.79-6.32-14.11-14.11-14.11s-14.11,6.32-14.11,14.11,6.32,14.11,14.11,14.11,14.11-6.32,14.11-14.11ZM157.97,386.93l96.99-24.69c-10.76-4.68-17.95-12.61-18.63-24.25l-105.25,26.34c-3.08,2.36-4.78,6.03-4.71,9.87l.27,14.53,31.34-1.8ZM349.21,412.64c3.1-23.32,10.79-42.94,22.8-62.32l-60.76-1.42-.62,54.48c-.03,3.62.35,7,1.72,10.05l36.86-.8Z"/>
  <path class="st1" d="M33.4,562.12c-5.37,0-8.3-2.43-8.85-6.73-.42-3.32,2.37-8.33,7.05-8.35l126.97-.37c-28.65-9.29-48.17-33.66-49.01-63.44-.59-21.06,7.42-40.82,22.44-54.22,15.84-14.13,36.62-19.97,57.65-16.21,30.6,5.62,52.94,30.22,56.86,60.78,4.25,33.13-14.45,62.65-46.18,73.69l284.54.17c-3.02-1.4-7.43-3.27-10.22-5.08-2.35-1.52,2.82-9.42-1.43-12.21l-8.08-5.29c-3.95-2.59-7.99,3-12.31,2.42l-7.91-7.99c-3.05-3.08,3.91-8.26,2.64-11.79-1.42-3.95-4.28-7.82-7.22-11.02l-10.51.22c-2.05-3.86-3.86-8.09-5.15-12.26l7.43-8.14-3.15-13.59-10.36-2.87-.63-14.35,10.21-3.8,1.96-11.85c.94-5.68-9.76-5.94-7.81-11.36l3.75-10.37,9.53-1.04c2.12-.23,3.95-4.7,5.11-6.35,6.11-8.72-4.88-12.82-1.72-16.34l8.12-9.04,10.11,3.2,10.72-8.71-1.08-11.1,9.08-5.32c7.1-4.16,5.71,9.23,17.68,3.88,2.12-.95,6.75-1.77,7.29-4.33l1.8-8.51c4.47-1.12,9.61-1.87,14.27-1.95,1.77,3.31,2.74,5.24,4.55,8.23,1.16,1.91,6.46.82,8.65,1.34,10.35,2.46,8.88-9.47,13.01-8.71,3.89.72,9.14,2.11,12.74,3.29l1.48,9.41c.31,1.95,5.13,2.97,6.88,3.9,10.88,5.8,10.82-6.26,15.94-3.19l8.76,5.27c1.37.82,2.19,3.63,1.45,4.9-3.44,5.96-.07,8.61,3.63,12.2,8.78,8.53,13.29-1.6,16.35,1.67,2.21,2.36,5.19,6.32,7.06,9.19,2.61,4.02-9.21,7.5-2.28,16.5,1.29,1.67,2.56,6.32,4.75,6.5l9.86.85,4.14,11.76c-2.05,4.55-9.68,5.72-9.26,9.41l1.4,12.29,9.9,4.25c.94,4.34.42,9.22-.75,13.75l-10.45,2.73-3.37,12.61c-.62,2.32,5.72,5.81,6.69,8.44.75,2.02-4.05,11.75-5.96,12.53-3.65-.21-7.79-.73-10.95-.19l-6.97,10.21c-1.7,2.5,4.5,8.27,2.92,10.72-2.14,3.33-6.31,7.24-9.79,8.81-9.57-4.92-9.99-4.74-20.89,3.3-2.82,2.08,1.34,8.95-2.19,13.13l94.01.09c4.01,0,6.65,3.54,7.07,6.37.52,3.49-1.48,8.39-6.34,8.38l-450.99-.23-184.69-.11ZM584.46,449.35c0-31.93-25.89-57.82-57.83-57.82s-57.83,25.88-57.83,57.82,25.89,57.82,57.83,57.82,57.83-25.88,57.83-57.82ZM218.12,480.71c0-21.76-17.65-39.41-39.42-39.41s-39.42,17.64-39.42,39.41,17.65,39.41,39.42,39.41,39.42-17.64,39.42-39.41ZM509,547.37c-2.3-4.34-5.65-2.98-8.49-4.26-4.91-2.21-9.67-.68-12.04,4.43l20.53-.18ZM555.24,547.43c2.4-4.2-18.81-.86-16.53-.14l16.53.14Z"/>
  <ellipse class="st0" cx="526.83" cy="448.84" rx="27.99" ry="27.98"/>
  <ellipse class="st2" cx="178.65" cy="480.72" rx="18.86" ry="18.86"/>
</svg>