<?xml version="1.0" encoding="UTF-8"?>
<svg id="Színtáradatok_réteg" xmlns="http://www.w3.org/2000/svg" xmlns:xlink="http://www.w3.org/1999/xlink" version="1.1" viewBox="0 0 700 700">
  <!-- Generator: Adobe Illustrator 30.2.1, SVG Export Plug-In . SVG Version: 2.1.1 Build 1)  -->
  <defs>
    <style>
      .st0 {
        fill: url(#linear-gradient2);
      }

      .st1 {
        fill: url(#linear-gradient1);
      }

      .st2 {
        fill: url(#linear-gradient3);
      }

      .st3 {
        fill: url(#linear-gradient6);
      }

      .st4 {
        fill: url(#linear-gradient5);
      }

      .st5 {
        fill: url(#linear-gradient4);
      }

      .st6 {
        fill: url(#linear-gradient);
      }
    </style>
    <linearGradient id="linear-gradient" x1="331.52" y1="704.18" x2="331.52" y2="-1118.76" gradientUnits="userSpaceOnUse">
      <stop offset="0" stop-color="#006e46"/>
      <stop offset=".54" stop-color="#5db327"/>
      <stop offset="1" stop-color="#96cc22"/>
    </linearGradient>
    <linearGradient id="linear-gradient1" x1="676.95" y1="704.18" x2="676.95" y2="-1118.76" xlink:href="#linear-gradient"/>
    <linearGradient id="linear-gradient2" x1="350.4" y1="704.18" x2="350.4" y2="-1118.76" xlink:href="#linear-gradient"/>
    <linearGradient id="linear-gradient3" x1="181.3" y1="704.18" x2="181.3" y2="-1118.76" xlink:href="#linear-gradient"/>
    <linearGradient id="linear-gradient4" x1="584.23" y1="704.18" x2="584.23" y2="-1118.76" xlink:href="#linear-gradient"/>
    <linearGradient id="linear-gradient5" x1="350" y1="711.8" x2="350" y2="-1203.51" xlink:href="#linear-gradient"/>
    <linearGradient id="linear-gradient6" x1="350" y1="711.8" x2="350" y2="-1203.51" xlink:href="#linear-gradient"/>
  </defs>
  <g>
    <path class="st6" d="M32.49,460.27c26.16,14.12,38.57,38.06,56.62,61.49l-11.8-37.79c-1.54-4.95-2.77-9.46-3.12-14.99l31.01,41.83c8.43,11.37,16.92,21.67,28.5,30.12l15.48-.08c-28.82-13.74-45.85-42.32-42.98-74.05,3.19-35.29,29.81-63.56,65.33-67.6,27.66-3.14,54.01,9.15,70.82,31.01,22.4,29.11,19.45,69.95-7.4,95.07-6.77,6.33-13.82,11.04-22.06,15.69,4.79.29,10.06.35,14.32-.23,9.16-6.3,16.77-13.45,23.41-22.11,20.7-27.01,21.89-63.22,3.91-91.53-28.77-45.31-91.16-54.6-131.46-18.59-20.37,18.2-20.94,35.72-41.14,32.29-8.27-1.4-14.44-6.66-15.89-15.21-.86-5.04-.79-10.6,1.64-15.13,6.85-12.79,20.57-4.37,29.82-9.1,6.4-3.28,11.28-7.95,16.03-13.64l-29.15-.45c-10.52-.16-17.48-9.88-18.21-20.18-1.08-15.29-.64-30.1-.04-45.53.75-19.61,15.68-34.82,35.54-34.4l65.09,1.38,34.57,1.76-12.31-43.32c-2.72-9.57-7.94-27.14,6.11-31.04,10.6-2.94,21.52,1.69,28.29,10.24,8.04,10.15,15.1,20.31,22.22,31.04,2.45,3.69,5.59,5.71,10.1,6.24,29.02,3.44,57.54,7.12,86.36,12.11,6.72,1.16,12.62,2.99,17.75,7.39,8.65,7.44,16.42,16.19,20.79,26.65,3.17,7.59-.96,15.25-8.7,17.13-3.43.83-7.49.94-11.22.74l-37.77-1.94c2.25,3.28,5.23,7.71,8.9,8.64,14.85.9,29.39.51,44.23.07,7.37-.22,12.81,2.14,17.17,7.95,6.87,9.15,13.78,17.88,21.32,26.71,2.95,3.45,8.67,5.23,13.21,5.43l45.34,2.05c4.03.18,7.81-1.22,10.54-4.01l8.13-8.3c1.15-1.18.27-4.55-.36-6.16l-32.99-85.09c-3.41-8.8-.02-17.94,8.47-21.71l-.91-2.07c-.26-.59-2.59-.64-3.19-.23l-9.72,6.66-17.36-11.9c-9.34,3.46-18.91,6.39-28.85,9.11-5.06,1.39-10.07,1.28-14.28-2.04-3.23-2.55-6.58-7.08-5.85-12.31,1.35-9.67,13.75-18.12,21.94-23.41,26.24-16.95,54.44-29.82,84.34-39.04,6.66-2.05,13.26-3.82,19.97-3.2,9.26.85,16.13,10.05,12.56,18.63-5.04,12.12-24.32,23.23-34.7,31.36l3.85,10.97-10.21,5.3,3.14,5.36c11-.93,19.51-.52,25.53,9.77l70,119.56c14.59.16,37.01,3.14,47.04,14.45,3,3.39,2.94,7.74.64,10.85-2.43,3.28-6.59,3.94-10.59,1.94-31-15.45-67.45-10.16-93.25,13.16-9.66,8.73-16.64,19.26-23.67,30.26-3.85,6.02-9.11,10.51-16.82,10.71l-117.63,3.1c-3.21.08-5.54,3.37-5.64,5.42-.15,3.06,2.19,5.87,6.17,5.85l89.89-.49c6.85-.04,12.45,2.34,17.12,7.1l31.37,31.96c3.32,3.38,4.5,8.79,1.45,12.63-3.49,4.4-10.44,4.36-14.45.35l-25.7-25.66c-3.37-3.36-8.49-3.88-13.2-4.01l-83.32-2.28-60.8-3.64c-5.5-.33-23.41,4.77-21.16,13.57l16.04.7,62.64.98,71.15.9c7.57.1,14.48,1.34,21.04,5.05,8.72,4.93,16.64,10.26,25.35,16.34l-74.72-.64-132.75,1.82c-5.79.08-10.42,3.71-13.37,7.89l-6.41,9.08,292.6.04c-6.97-4.39-13.7-8.39-19.55-13.91-27.51-25.98-30.3-67.74-6.58-97.12,14.44-17.88,35.83-28.43,59.01-27.54,25.38.98,47.19,14.16,60.97,35.18,24.29,37.07,7.98,83.55-31.25,102.55-.48.23-1.26,1.14-.99,1.13l1.51-.05c11.98-.41,23.85-.46,35.86.03,3.33.14,5.09,4.47,4.61,6.95-.42,2.15-3.39,5.3-6.53,5.32l-69.96.26-280.34-.77-287.09-.08c-3.68,0-6-3.31-6.22-5.62-.28-2.94,2.62-6.2,6.12-6.22l28.45-.22c-9.06-15.8-19.67-29.54-32.32-43.41,10.23-1.01,19.43,2.99,27.82,8.1,10.73,6.54,17.97,15.62,25.68,26.31l.83-1.06c-8.83-28.97-25.18-50.06-43.68-73.75,4.88-.42,9.62.76,13.96,3.09ZM480.5,207.2c9.91-5.17,20.02-9.71,28.49-18.05-16.38,2.72-30.26,9.3-44.6,15.53-17.46,7.58-44.5,21.17-59.21,32.7,21.31-4.25,56.04-20.11,75.32-30.17ZM326.42,289.66l-76.5-10.81c-7.12-1.01-11.68-4.9-15.34-10.79-.9-1.45-31.79-52.52-32.08-35.84l5.13,16.67,14.35,43.85,114.56,14.1c8.44,1.04,15.69,1.63,24.47,2.18-11.72-14.65-16.34-16.79-34.59-19.37ZM202.74,346.28l-75.36-3.22-35.3-.22c-1.93-.01-5.31,1.8-5.56,3.58-.61,4.32-.75,8.32.33,12.29.79,2.93,4.89,3.84,7.96,3.85l115.64.18c21.13.03,38.32,3.85,52.21,19.96l38.42,44.57c4.5,5.22,9.9,7.9,16.79,7.88l57.39-.22,50.64-.83,50.59-.98c5.77-.11,10.46-2.18,13.88-6.92,21.28-26.11,36.92-42.83,72.27-50.88l-62.08-106.93c-3.45-5.95-9.56-9.12-16.06-7.58-2.53.6-5.42,2.91-6.27,4.75-1.06,2.3-1.11,6.19-.08,8.73l30.64,76.19,7.26-7.47c3.64-3.75,10.5-3.53,13.35.82,2.51,3.83,1.07,8.49-1.93,11.64l-31.72,33.24c-3.58,3.75-7.76,6.49-13.21,6.56-5.5.08-10.73.34-16.42-.11l-108.72-8.57c-5.08-.4-9.52-4.38-12.74-7.92l-45.68-50.3c-4.19-4.61-9.29-7.54-15.57-8.67-42.92-7.74-85.62-11.95-129.37-13.04-18.04-.45-35.1-1.32-52.57-.11-9.74.67-16.37,8.98-15.05,18.13l70.92.93,27.03.54c11.28.23,13.84,11.38,18.39,20.15ZM390.57,368.63l-9.89-12.44c-1.44-1.81-5.05-3.5-7.52-3.52l-28.99-.21,11.1,12.31c1.75,1.94,5.12,3.41,7.8,3.45l27.51.42ZM235.52,473.06c0-29.95-24.28-54.22-54.22-54.22s-54.22,24.28-54.22,54.22,24.28,54.22,54.22,54.22,54.22-24.28,54.22-54.22ZM636.11,474.33c0-29.07-23.56-52.63-52.63-52.63s-52.63,23.56-52.63,52.63,23.56,52.63,52.63,52.63,52.63-23.56,52.63-52.63ZM317.04,457.87l-34.15,7.13c-.83,4.57-1.06,7.86-1.11,12.94,9.47-3.54,37.08-7.26,35.26-20.07Z"/>
    <path class="st1" d="M689.57,552.82c-10.34.52-19.38.47-30.07.26,2.56-3.72,4.95-9.29,9.55-10.84,4.21-1.42,24.17-3.72,25.33,4.46.27,1.93-1.89,5.97-4.81,6.12Z"/>
    <path class="st0" d="M461.38,419.97l-110.03-5.18-20.68-.8c-6.08-.24-10.95-2.74-15.05-7.24l-45.69-50.17c-2.2-2.41-5.54-3.85-8.66-4.31l-21.7-3.15c-3.04-.44-6.67-1.93-8.84-4.04l-10.07-9.74c17.78,1.48,33.98,3.37,51,6.64,4.4.84,8.11,5.53,11.06,8.72l42.68,46.26c3.84,4.16,8.26,6.46,13.94,6.73l63.19,3.04,77.61,3.45-8.48,7.85c-2.95.88-6.22,2.13-10.29,1.94Z"/>
    <path class="st2" d="M217.44,472.53c0,19.96-16.18,36.14-36.14,36.14s-36.14-16.18-36.14-36.14,16.18-36.14,36.14-36.14,36.14,16.18,36.14,36.14ZM199,472.45c0-9.71-7.87-17.58-17.58-17.58s-17.58,7.87-17.58,17.58,7.87,17.58,17.58,17.58,17.58-7.87,17.58-17.58Z"/>
    <path class="st5" d="M619.97,472.6c0,19.74-16,35.74-35.74,35.74s-35.74-16-35.74-35.74,16-35.74,35.74-35.74,35.74,16,35.74,35.74ZM601.75,472.5c0-9.71-7.87-17.58-17.58-17.58s-17.58,7.87-17.58,17.58,7.87,17.58,17.58,17.58,17.58-7.87,17.58-17.58Z"/>
  </g>
  <g>
    <path class="st4" d="M633.46,622.77c-94.3,10.16-188.81,12.46-283.46,12.75-94.66-.33-189.16-2.64-283.46-12.75,0,0,0-1.5,0-1.5,129.7-.72,294.95-.84,425.2-.5,35.23.01,106.48.26,141.73.5,0,0,0,1.5,0,1.5h0Z"/>
    <path class="st3" d="M589.02,643.53c-157.78,27.52-320.2,26.79-478.04,0,0,0,.08-1.5.08-1.5,119.4,5.39,238.94,9.31,358.43,4.81,39.82-1.33,79.64-2.9,119.44-4.81,0,0,.09,1.5.09,1.5h0Z"/>
  </g>
</svg>