<?xml version="1.0" encoding="UTF-8"?>
<svg id="Színtáradatok_réteg" xmlns="http://www.w3.org/2000/svg" xmlns:xlink="http://www.w3.org/1999/xlink" version="1.1" viewBox="0 0 700 700">
  <!-- Generator: Adobe Illustrator 30.2.1, SVG Export Plug-In . SVG Version: 2.1.1 Build 1)  -->
  <defs>
    <style>
      .st0 {
        fill: url(#linear-gradient2);
      }

      .st1 {
        fill: url(#linear-gradient1);
      }

      .st2 {
        fill: url(#linear-gradient9);
      }

      .st3 {
        fill: url(#linear-gradient3);
      }

      .st4 {
        fill: url(#linear-gradient6);
      }

      .st5 {
        fill: url(#linear-gradient8);
      }

      .st6 {
        fill: url(#linear-gradient7);
      }

      .st7 {
        fill: url(#linear-gradient5);
      }

      .st8 {
        fill: url(#linear-gradient4);
      }

      .st9 {
        fill: url(#linear-gradient18);
      }

      .st10 {
        fill: url(#linear-gradient13);
      }

      .st11 {
        fill: url(#linear-gradient12);
      }

      .st12 {
        fill: url(#linear-gradient15);
      }

      .st13 {
        fill: url(#linear-gradient16);
      }

      .st14 {
        fill: url(#linear-gradient11);
      }

      .st15 {
        fill: url(#linear-gradient10);
      }

      .st16 {
        fill: url(#linear-gradient17);
      }

      .st17 {
        fill: url(#linear-gradient14);
      }

      .st18 {
        fill: url(#linear-gradient19);
      }

      .st19 {
        fill: url(#linear-gradient);
      }
    </style>
    <linearGradient id="linear-gradient" x1="207.83" y1="754.84" x2="207.83" y2="-354.96" gradientUnits="userSpaceOnUse">
      <stop offset="0" stop-color="#02378f"/>
      <stop offset="1" stop-color="#0185e4"/>
    </linearGradient>
    <linearGradient id="linear-gradient1" x1="423.17" y1="754.84" x2="423.17" y2="-354.96" xlink:href="#linear-gradient"/>
    <linearGradient id="linear-gradient2" x1="405.86" y1="754.84" x2="405.86" y2="-354.96" xlink:href="#linear-gradient"/>
    <linearGradient id="linear-gradient3" x1="427.91" y1="754.84" x2="427.91" y2="-354.96" xlink:href="#linear-gradient"/>
    <linearGradient id="linear-gradient4" x1="555.36" y1="754.84" x2="555.36" y2="-354.96" xlink:href="#linear-gradient"/>
    <linearGradient id="linear-gradient5" x1="406.51" y1="754.84" x2="406.51" y2="-354.96" xlink:href="#linear-gradient"/>
    <linearGradient id="linear-gradient6" x1="554.26" y1="754.84" x2="554.26" y2="-354.96" xlink:href="#linear-gradient"/>
    <linearGradient id="linear-gradient7" x1="406.93" y1="754.84" x2="406.93" y2="-354.96" xlink:href="#linear-gradient"/>
    <linearGradient id="linear-gradient8" x1="514.56" y1="754.84" x2="514.56" y2="-354.96" xlink:href="#linear-gradient"/>
    <linearGradient id="linear-gradient9" x1="497.92" y1="754.84" x2="497.92" y2="-354.96" xlink:href="#linear-gradient"/>
    <linearGradient id="linear-gradient10" x1="460.15" y1="754.84" x2="460.15" y2="-354.96" xlink:href="#linear-gradient"/>
    <linearGradient id="linear-gradient11" x1="355.83" y1="754.84" x2="355.83" y2="-354.96" xlink:href="#linear-gradient"/>
    <linearGradient id="linear-gradient12" x1="449.92" y1="754.84" x2="449.92" y2="-354.96" xlink:href="#linear-gradient"/>
    <linearGradient id="linear-gradient13" x1="485.4" y1="754.84" x2="485.4" y2="-354.96" xlink:href="#linear-gradient"/>
    <linearGradient id="linear-gradient14" x1="535.99" y1="754.84" x2="535.99" y2="-354.96" xlink:href="#linear-gradient"/>
    <linearGradient id="linear-gradient15" x1="318.52" y1="754.84" x2="318.52" y2="-354.96" xlink:href="#linear-gradient"/>
    <linearGradient id="linear-gradient16" x1="548.77" y1="754.84" x2="548.77" y2="-354.96" xlink:href="#linear-gradient"/>
    <linearGradient id="linear-gradient17" x1="527.47" y1="754.84" x2="527.47" y2="-354.96" xlink:href="#linear-gradient"/>
    <linearGradient id="linear-gradient18" x1="546.84" y1="754.84" x2="546.84" y2="-354.96" xlink:href="#linear-gradient"/>
    <linearGradient id="linear-gradient19" x1="288.81" y1="754.84" x2="288.81" y2="-354.96" xlink:href="#linear-gradient"/>
  </defs>
  <path class="st19" d="M296.71,372.7l-117.26,135.53-79.59,91.81c-1.36,1.57-4.55,2.02-5.83,1.29-1.33-.76-2.66-3.9-1.79-5.94l88.78-208.34c.74-1.74-.13-4.67-2.19-4.67l-108.34-.06c-1.22,0-3.74-1.54-4.43-2.46-.81-1.07-.8-3.96.17-5.62l128.5-218.85c2.13-3.63,6.93-6.21,11.02-6.21l87.07.11c3.22,0,7.21,2.01,8.37,4.07,1.48,2.64,1.56,7.8-.14,10.86l-52.36,94.27-21.39,38.75c-.58,1.05-.45,3.77.18,4.43s2.59,1.43,3.79,1.43h113.75c1.81.02,4.2,1.6,4.8,2.84.7,1.44.39,5.25-.82,6.65l-52.3,60.11Z"/>
  <path class="st1" d="M425.35,600.3c-79.61,7.43-162.34-36.48-195.8-109.33l22.28-23.52c17.03,37.96,46.4,66.71,83.86,84.02,100.87,46.6,219.45-14.51,244.69-121.54,14.8-62.78-2.9-127.72-47.86-173.85-69.12-70.92-184.28-73.73-254.88-3.64,15.69-39.59,49.02-66.2,90.6-73.51,23.29-4.09,46.21-3.64,69.75-.95,24.1,2.75,46.29,9.87,66.98,22.56,18.04,11.08,35.08,22.88,50.25,37.8,12.97,12.76,22.47,27.52,31.88,43.07,11.05,18.26,18.37,37.79,23.9,58.28,4.46,16.52,5.29,32.09,5.74,49.12,2.02,77.97-37.74,145.46-104.74,184.25-26.54,15.36-55.73,24.35-86.63,27.23Z"/>
  <path class="st0" d="M419.83,164.4l-28.63.07c-1.57,0-4.62-2.83-4.72-4.54l-.77-13.76c-3.28-.7-6.48-1.4-9.7-1.42-8.43-.07-15.31-5.72-15.35-14.57l-.11-22.63c-.04-8.7,6.36-16.09,15.65-16.1l60.1-.03c8.63,0,14.95,7.03,14.9,15.09l-.14,23.67c-.05,8.78-7.3,14.38-15.54,14.5-3.15.05-6.86.76-9.67,1.5l-.6,13.01c-.09,2-2.86,5.19-5.4,5.2Z"/>
  <path class="st3" d="M370.76,432.65l-7.83-7.44c-1.2-1.14-2.59-4.26-2.38-6.02.19-1.57,2.01-3.9,3.43-5.35l15.2-15.57c-2.55-7.86-1.86-15.21,2.52-22.29,7.4-11.97,20.27-9.35,24.91-13.09l80.78-64.93c3.77,1.51,6.8,4.37,7.91,7.86l-64.94,83.75c-4.66,6.01-1.87,15.82-9.89,20.33-6.86,3.86-14.03,8.12-23.43,4.98l-16.54,17.41c-2.64,2.78-6.8,3.14-9.74.35Z"/>
  <path class="st8" d="M573.5,215.43c-3.75,4.64-11.34,3.67-15.38.46l-30.8-24.49c-4.61-3.67-6.97-10.77-3.23-15.84,4.22-5.73,8.45-11.24,12.94-16.72,3.58-4.37,10.67-3.3,14.65-.17l32.76,25.79c4.8,3.78,5.29,10.89,1.75,15.27l-12.69,15.7Z"/>
  <path class="st7" d="M416.28,251.83l-18.79.09c-2.24.01-4.36-2.27-4.35-4.52l.05-24.02c0-1.58,2.59-3.55,4.12-3.55h18.87c1.33,0,3.66,2.23,3.66,3.67l.04,23.89c0,1.92-1.75,4.44-3.6,4.45Z"/>
  <path class="st4" d="M569.03,398.8c0,2.09-2.23,4.39-3.93,4.35l-25.16-.63-.46-23.1c-.03-1.3,2.22-3.7,3.53-3.7l22.04-.02c1.37,0,3.88,2.25,3.89,3.74l.08,19.36Z"/>
  <path class="st6" d="M420.78,552.4l-24.44.49c-1.3.03-3.48-2.59-3.48-4.01l-.04-19.66c0-1.72,1.75-4.12,3.62-4.14l20.5-.2c1.15-.01,4.14,1.69,4.12,2.99l-.28,24.53Z"/>
  <path class="st5" d="M512.07,290.13c-3.56-1.4-5.74-3.68-8.09-7.31l13.59-13.57c3.49,2.61,5.77,5.01,7.57,8.71l-13.07,12.16Z"/>
  <path class="st2" d="M507.65,510.79c-.54,3.22-5.16,6.23-8.59,6.43l-10.85-13.75c1.87-3.01,5.3-5.29,8.84-6.33l10.61,13.65Z"/>
  <path class="st15" d="M468.54,535.22c-2.75,2.52-6.44,4.05-10.02,4.16l-6.76-17.03c3.92-1.89,6.31-2.76,10.31-3.68l6.47,16.55Z"/>
  <path class="st14" d="M357.7,542.29c-2.95,1.09-8.15-.87-9.77-3.72,1.53-5.62,3.53-10.79,5.86-16.06,3.42-.03,7.36,1.31,9.93,3.68l-6.02,16.11Z"/>
  <path class="st11" d="M452.43,249.24c-4.53-1.28-7-2.1-10.48-3.59l5.63-16.48c3.14-1.2,7.89.37,10.29,3.24l-5.45,16.83Z"/>
  <path class="st10" d="M485.54,265.53c-2.7.73-7.36-2.4-8.88-5.1,2.15-4.52,5.73-9.64,9.14-13.4,2.42-1.18,8.76,2.26,8.34,5.16-1.27,4.81-4.83,8.95-8.6,13.34Z"/>
  <path class="st17" d="M531.51,318.2c-2.66-.43-5.32-5.07-5.28-8.19,4.4-3.25,9.71-6.27,14.89-8.36,2.89,1.9,5.01,6.17,4.57,9.4-4.52,2.72-9.11,5.06-14.18,7.14Z"/>
  <path class="st12" d="M317.75,522.39c-2.18,1.87-7.84-2.58-8.28-5.52l9.48-14.19c3.32,1.35,6.32,3.46,8.62,6.35-2.95,4.71-5.59,8.92-9.83,13.36Z"/>
  <path class="st13" d="M542.43,350.76c-2.35.18-4.26-6.85-3.05-9.11,4.6-2.04,10.63-3.76,16.13-4.97,2.42,2.71,3.21,6.68,2.98,10.38-5.61,1.66-9.62,2.94-16.06,3.69Z"/>
  <path class="st16" d="M531.46,485.88l-13.92-9.37c.93-3.43,3.08-6.64,6.29-9.12l13.56,9.53c-.29,3.44-2.58,6.94-5.94,8.96Z"/>
  <path class="st9" d="M553.15,446.77l-16.13-5.1c-.19-3.38.99-7.07,3.19-10.01l16.39,5.47c.44,2.86-.93,7.34-3.44,9.64Z"/>
  <path class="st18" d="M286.18,493.77c-2.18,1.35-7.75-4.9-6.5-7.17,3.02-4.06,7.34-7.29,11.74-10.14,2.82.84,5.83,4.49,6.7,7.91-3.56,3.37-7.27,6.39-11.94,9.4Z"/>
</svg>