<?xml version="1.0" encoding="UTF-8"?>
<svg id="Színtáradatok_réteg" xmlns="http://www.w3.org/2000/svg" xmlns:xlink="http://www.w3.org/1999/xlink" version="1.1" viewBox="0 0 700 700">
  <!-- Generator: Adobe Illustrator 30.2.1, SVG Export Plug-In . SVG Version: 2.1.1 Build 1)  -->
  <defs>
    <style>
      .st0 {
        fill: url(#linear-gradient2);
      }

      .st1 {
        fill: url(#linear-gradient1);
      }

      .st2 {
        fill: url(#linear-gradient9);
      }

      .st3 {
        fill: url(#linear-gradient3);
      }

      .st4 {
        fill: url(#linear-gradient6);
      }

      .st5 {
        fill: url(#linear-gradient8);
      }

      .st6 {
        fill: url(#linear-gradient7);
      }

      .st7 {
        fill: url(#linear-gradient5);
      }

      .st8 {
        fill: url(#linear-gradient4);
      }

      .st9 {
        fill: url(#linear-gradient10);
      }

      .st10 {
        fill: url(#linear-gradient);
      }
    </style>
    <linearGradient id="linear-gradient" x1="460.6" y1="654.1" x2="465.79" y2="94.1" gradientUnits="userSpaceOnUse">
      <stop offset="0" stop-color="#02378f"/>
      <stop offset="1" stop-color="#0185e4"/>
    </linearGradient>
    <linearGradient id="linear-gradient1" x1="202.82" y1="651.71" x2="208" y2="91.71" xlink:href="#linear-gradient"/>
    <linearGradient id="linear-gradient2" x1="537.84" y1="654.81" x2="543.03" y2="94.82" xlink:href="#linear-gradient"/>
    <linearGradient id="linear-gradient3" x1="483.66" y1="654.31" x2="488.84" y2="94.32" xlink:href="#linear-gradient"/>
    <linearGradient id="linear-gradient4" x1="491.25" y1="654.38" x2="496.44" y2="94.39" xlink:href="#linear-gradient"/>
    <linearGradient id="linear-gradient5" x1="497.91" y1="654.44" x2="503.1" y2="94.45" xlink:href="#linear-gradient"/>
    <linearGradient id="linear-gradient6" x1="501.28" y1="654.47" x2="506.47" y2="94.48" xlink:href="#linear-gradient"/>
    <linearGradient id="linear-gradient7" x1="401.63" y1="653.55" x2="406.81" y2="93.56" xlink:href="#linear-gradient"/>
    <linearGradient id="linear-gradient8" x1="550.24" y1="654.93" x2="555.42" y2="94.93" xlink:href="#linear-gradient"/>
    <linearGradient id="linear-gradient9" x1="217.47" y1="651.85" x2="222.65" y2="91.85" xlink:href="#linear-gradient"/>
    <linearGradient id="linear-gradient10" x1="279.59" y1="652.42" x2="284.78" y2="92.43" xlink:href="#linear-gradient"/>
  </defs>
  <path class="st10" d="M629.56,594.75c6.32,0,13.64-4.08,13.65-10.47l.12-366.05-40.35-.08c3.62-5.46,3.98-10.66,1.11-15.94l26.14-.39-55.42-54.31-.27,42.72-15.81-.09-.28-53.18-275.22.1-.09,132.89-16.45,3.49-.06-138.42c0-10.13,9-14.66,18.02-14.66l279.48-.03c4.54,0,7.81.98,10.93,4.07l78.97,78.45c4.79,4.76,6.07,8.24,6.07,15.2l-.04,365.38c0,14.02-11.99,27.32-26.89,27.32l-342.48.05c-13.5,0-24-11.59-24.02-24.17l-.07-39.99,16.46-3.59.1,41.51c.01,5.85,4.3,10.22,10.55,10.22l335.87-.05Z"/>
  <path class="st1" d="M85.94,561.68c-4.76.96-8.44.51-12.22-1.83-3.31-2.05-4.16-5.86-5.17-10.45l-42.62-193.75c-1.55-7.04,4.03-14.56,11.04-15.94l114.92-22.7,173.4-34.33c6.34-1.26,13.64,2.64,15.13,9.36l43.36,196.07c1.49,6.74-1.01,13.97-8.38,15.45l-289.47,58.11ZM305.84,501.58l61.23-12.69-13.95-64.08-27.88-125.84-282.25,55.8,16.66,77.83,24.6,113.49,221.58-44.51Z"/>
  <path class="st0" d="M577.28,238.12c1.03-2.89,3.98-4.45,6.51-4.68,2.16-.2,7.27,1.46,7.28,4.4l.15,41.97c.01,3.61-3.43,6.26-6.95,6.26h-84.87c-5.05-.01-7.3-3.85-7.3-8.3v-72.74c0-4.38,6.46-4.64,9.07-4.64l54.4-.07c4.15,0,7.54,2.07,7.67,6.07s-3.28,7.68-7.87,7.09l-49.63.08.07,58.98,71.5-.17-.02-34.25Z"/>
  <path class="st3" d="M584.99,329.34l-195.42.08c-4.75,0-7.8-2.3-8.08-6.27s2.25-7.51,7.1-7.51h196.53c4.24-.01,6.7,3.48,6.86,6.62.2,3.69-2.39,7.07-6.99,7.08Z"/>
  <path class="st8" d="M586.02,387.34l-185.17.03c-3.71,0-5.59-4.67-5.43-7.12.23-3.43,2.79-6.49,7.11-6.49h182.59c4.04.01,6.79,3.24,7.03,6.51.19,2.62-2.19,7.07-6.13,7.07Z"/>
  <path class="st7" d="M585.15,445.31l-170.59.05c-4.57,0-7.07-3.72-6.99-7.13.1-4.34,3.51-6.44,7.83-6.44l49.07.04,121.6.04c3.93,0,6.43,4.02,6.17,7.1-.28,3.29-2.93,6.33-7.09,6.34Z"/>
  <path class="st4" d="M585.35,503.08l-164.78.07c-4.35,0-7.16-2.65-7.41-6.1-.26-3.63,2.05-7.49,6.42-7.49h166.53c3.79,0,6.16,3.98,6.24,6.54.1,3.38-2.06,6.98-6.99,6.98Z"/>
  <path class="st6" d="M473.32,256.96l-134.78.03c-4.55,0-7.64-1.88-8.36-5.74s1.4-8.68,6.36-8.68l137.78-.12c4.52,0,6.59,4.55,6.36,7.79-.25,3.46-3.02,6.73-7.36,6.73Z"/>
  <path class="st5" d="M515.51,242.12c-3.04-3.32-.75-8.5,1.95-10.34,3.42-2.33,7.66-2.03,10.77,1.12l9.64,9.76,43.46-41.69c3.15-3.03,8.68-1.75,10.73.41,3.37,3.56,3.03,8.42-.55,11.8l-49.26,46.48c-2.81,2.66-6.92,2.76-9.76-.04-5.75-5.66-11.24-11.25-16.98-17.51Z"/>
  <path class="st2" d="M344.06,471.53c1.04,4.94-2.82,9.44-7.51,10.38l-76.29,15.37-153.84,30.87c-5.16,1.03-8.64-2.81-9.45-6.95-2.06-10.49-5.65-13.47-1.05-20.43l65.48-99.25c5.4-8.18,18.05-12.22,26.61-6.01l59.96,43.41c1.13.82,2.89,1.74,3.86,1.79,4.1.21,10.02-13.38,12.17-17.87,4.54-9.5,16.38-13.45,25.45-6.81l45.91,33.59c3.23,2.36,5.41,6.24,6.17,9.88l2.52,12.04ZM176.83,444.66c5.92-7.24,10.02-13.84,14.34-21.45s-8.37-13.89-12.95-14.94c-3.61-.83-7.26,2.04-9.23,5.05-17.56,26.75-32.21,54.37-46.14,83.3-.31.65-.32,2.66.28,2.92s2.41-.11,2.95-.62c17.97-16.92,34.86-34.84,50.74-54.26ZM290.11,442.35c1.14-1.29,2.28-4.45,1.82-5.8-2.08-6.06-15.12-11.78-18.99-5.29-7.69,12.9-13.37,27.94-18.89,41.57-.4.99.25,3.48,1.02,3.35,5.46-.92,29.63-27.69,35.04-33.82Z"/>
  <path class="st9" d="M294.2,373.88c-9.1,5.68-19.97,4.32-26.78-2.47-6.84-6.82-8.74-17.56-3.13-25.84,7.72-11.38,22.45-13.2,32.42-4.45s9.5,25.27-2.51,32.75Z"/>
</svg>