<?xml version="1.0" encoding="UTF-8"?>
<svg id="Színtáradatok_réteg" xmlns="http://www.w3.org/2000/svg" xmlns:xlink="http://www.w3.org/1999/xlink" version="1.1" viewBox="0 0 700 700">
  <!-- Generator: Adobe Illustrator 30.2.1, SVG Export Plug-In . SVG Version: 2.1.1 Build 1)  -->
  <defs>
    <style>
      .st0 {
        fill: url(#linear-gradient2);
      }

      .st1 {
        fill: url(#linear-gradient1);
      }

      .st2 {
        fill: url(#linear-gradient3);
      }

      .st3 {
        fill: url(#linear-gradient6);
      }

      .st4 {
        fill: url(#linear-gradient7);
      }

      .st5 {
        fill: url(#linear-gradient5);
      }

      .st6 {
        fill: url(#linear-gradient4);
      }

      .st7 {
        fill: url(#linear-gradient);
      }
    </style>
    <linearGradient id="linear-gradient" x1="390.49" y1="604.93" x2="390.49" y2="108.28" gradientUnits="userSpaceOnUse">
      <stop offset="0" stop-color="#02378f"/>
      <stop offset="1" stop-color="#0185e4"/>
    </linearGradient>
    <linearGradient id="linear-gradient1" x1="146.43" y1="604.93" x2="146.43" y2="108.28" xlink:href="#linear-gradient"/>
    <linearGradient id="linear-gradient2" x1="467.19" y1="604.93" x2="467.19" y2="108.28" xlink:href="#linear-gradient"/>
    <linearGradient id="linear-gradient3" x1="192.89" y1="604.93" x2="192.89" y2="108.28" xlink:href="#linear-gradient"/>
    <linearGradient id="linear-gradient4" x1="236.11" y1="604.93" x2="236.11" y2="108.28" xlink:href="#linear-gradient"/>
    <linearGradient id="linear-gradient5" x1="254.05" y1="604.93" x2="254.05" y2="108.28" xlink:href="#linear-gradient"/>
    <linearGradient id="linear-gradient6" x1="471.37" y1="604.93" x2="471.37" y2="108.28" xlink:href="#linear-gradient"/>
    <linearGradient id="linear-gradient7" x1="534" y1="604.93" x2="534" y2="108.28" xlink:href="#linear-gradient"/>
  </defs>
  <path class="st7" d="M387.54,537.8c-76.71-42.72-122.29-132.09-94.67-218.63l-142.01-5.7c-3.48-.11-44.97-1.95-42.9-6.21.4-.83,2.24-2.62,3.41-2.75,11.29-1.26,23.78-2.57,36.04-3.28,62.74-3.62,92.16-5.8,155.21-6.61,12.49-25.07,29.74-45.81,51.92-63.43l-8.28-12.69-8.87,5.21c-3.37,1.98-7.79,1.2-10.04-2.12l-9.84-14.5c-1.16-1.71-1.41-5.7-.51-7.96.71-1.79,3.57-3.4,5.78-4.8l31.17-19.83c2.63-1.67,8.24-3,10.38,0l11,15.48c2.09,2.93,3.58,7.16-.51,9.81l-10.6,6.86,8.2,12.19c26.9-16.56,56.6-26.01,88.1-28.51,88.55-7.04,171.38,45.02,201.82,128.6,16.1,44.21,14.07,93.73-5.85,136.73-24.83,53.62-76.96,93.34-134.92,104.12-46.27,8.6-92.92.93-134.04-21.97ZM626.49,439.99c6.47-13.17,10.02-26.7,12.43-41.15,12.82-76.65-31.89-147.98-101.5-176.78-65.05-26.91-140.1-11.03-187.55,40.69-31.44,34.26-45.89,79.61-40.02,126.07,7.32,57.91,45.96,106.61,98.51,129.81,82.31,36.33,178.22,2.6,218.13-78.64Z"/>
  <path class="st1" d="M58.6,377.14l-28.65-2.63c-.94-.09-3.07-1.54-3.05-2.47s2.15-2.71,3.46-2.86c16.06-1.83,33.16-3.64,50.27-4.2l185.33-7.1c-1.31,9.35-1.34,17.78-.96,27.02l-64.96-2.12-141.44-5.64Z"/>
  <path class="st0" d="M485.53,185.7l-35.21.64-.69-9.79-14.25.12c-5.19.04-9.3-2.92-9.3-8.55l-.02-23.35c0-4.24,2.76-7.9,7.47-7.9l67.64-.05c3.61,0,7.11,3.53,7.11,6.86l.03,24.56c0,4.1-2.39,8.1-7.14,8.14l-15.16.14-.48,9.18Z"/>
  <path class="st2" d="M209.27,438.38l-93-5.86c-3.4-.16-5.94-.66-8.4-3.95,6.62-1.91,11.64-2.58,18.12-3.02,59-3.98,84.81-5.7,144.53-6.42l7.4,21.04-68.65-1.79Z"/>
  <path class="st6" d="M214.05,477.13c-6.7-.21-39.5-1.99-42.79-5.01-.47-.43,1.6-2.12,2.24-2.18l31.74-2.7,83.9-3.85,11.91,17.53-86.99-3.79Z"/>
  <path class="st5" d="M213.71,260.72c-6.52-.45-16.56-1.24-19.57-4.06-2.74-2.57,6.84-4.73,9.67-4.82l110.62-3.84-14.58,17.41c-39.8-.57-46.07-1.9-86.15-4.68Z"/>
  <path class="st3" d="M366.07,374.46c-10.02.93-18.83.58-28.24.65.86,28.08,11.39,54.21,29.26,75.95l10.1-7.83c2.14.71,6.01,4.02,6.27,6.24-1.19,4.39-4.29,7.64-7.74,11.27,23.48,25.76,61.44,41.98,96.12,44.1l.14-22.21c.02-3.18,2.09-5.61,5.15-6.4,2.25-.58,6.73,1.44,6.75,4.49l.12,24.24c49.68-.25,92.91-25.33,122.59-63.69-31.36,61.02-101.94,89.27-167.8,72.31-81.12-20.9-133.74-106.01-107.15-188.11,18.58-57.37,70.06-96.41,129.8-101.22,50.77-4.09,99.47,18.21,130.73,58.43,13.26,17.06,22.45,36.64,25.92,57.69-8.44-23.87-21.9-43.93-40.39-60.61l-8.7,11.89c-.65.88-3.04,1.68-3.99,1.37-6.08-1.98,6.69-14.49,9.16-16.33-25.79-24.24-58.9-38.32-94.33-40.72l-.39,21.26c-.05,2.48-3.88,4.7-6.07,4.4-2.9-.41-5.32-3.13-5.4-6.32l-.51-19.35c-37.01,2.44-70.64,17.71-95.29,44.37,3.77,3.64,7.38,6.93,10.34,10.68.55,2.12-3.29,6.01-5.65,6.28-3.93-2.39-8.04-5.72-11.85-8.75-17.44,21.41-26.34,47.12-27.53,74.36l24.3.23c2.53.02,5.2,1.72,6.32,3.5s.92,7.57-2.01,7.85Z"/>
  <path class="st4" d="M612.62,376.24l-113.33,10.46c-4.87,7.96-12.37,12.27-21.33,12.66-8.51.38-16.36-3.67-21.85-11.17-5.86-8.02-6.22-18.74-1.12-27.65,4.53-7.91,13.57-12.8,23.84-12.29l45.65-54.7c2.14-2.57,4.31-4.53,7.45-4.31,2.35.17,6.57,4.13,5.2,6.96l-28.23,58.17,60.32,7.76c13.99,1.8,27.17,2.82,41.42,3.23,2.57.3,4.94,1.82,5.71,3.84.7,1.85-.25,6.71-3.73,7.03ZM476.43,385.37c6.3.29,10.21-4.41,11.3-8.68,1.48-5.8-1.24-10.65-5.81-13.06s-10.08-1.7-13.59,2.3c-3.12,3.56-3.65,8.49-1.67,13.09,1.26,2.94,5.17,6.14,9.77,6.35Z"/>
</svg>