<?xml version="1.0" encoding="UTF-8"?>
<svg id="Színtáradatok_réteg" xmlns="http://www.w3.org/2000/svg" xmlns:xlink="http://www.w3.org/1999/xlink" version="1.1" viewBox="0 0 700 700">
  <!-- Generator: Adobe Illustrator 30.2.1, SVG Export Plug-In . SVG Version: 2.1.1 Build 1)  -->
  <defs>
    <style>
      .st0 {
        fill: url(#linear-gradient2);
      }

      .st1 {
        fill: url(#linear-gradient1);
      }

      .st2 {
        fill: url(#linear-gradient3);
      }

      .st3 {
        fill: url(#linear-gradient4);
      }

      .st4 {
        fill: url(#linear-gradient);
      }
    </style>
    <linearGradient id="linear-gradient" x1="350" y1="708.02" x2="350" y2="-1207.28" gradientUnits="userSpaceOnUse">
      <stop offset="0" stop-color="#006e46"/>
      <stop offset=".54" stop-color="#5db327"/>
      <stop offset="1" stop-color="#96cc22"/>
    </linearGradient>
    <linearGradient id="linear-gradient1" x1="403.23" y1="708.02" x2="403.23" y2="-1207.28" xlink:href="#linear-gradient"/>
    <linearGradient id="linear-gradient2" x1="329.04" y1="708.02" x2="329.04" y2="-1207.28" xlink:href="#linear-gradient"/>
    <linearGradient id="linear-gradient3" x1="350" y1="708.02" x2="350" y2="-1207.28" xlink:href="#linear-gradient"/>
    <linearGradient id="linear-gradient4" x1="350" y1="708.02" x2="350" y2="-1207.28" xlink:href="#linear-gradient"/>
  </defs>
  <g>
    <path class="st4" d="M129.41,412.42c-9.32-11.47-21.89-45.27-20.36-44.35-2.43-1.47-14.91.79-21.38-8.59-2.8-4.05-3.87-9.3-3.88-14.68l-.28-156.65c-.03-16.6,10.75-30.85,28.27-30.85l84.17.03c15.67,0,27.28,12.58,28.05,27.61l.09,50.53.21,93.13,163.73.04c7.53,0,14.1,2.6,17.63,8.79,5.87,10.29,12.25,34.55-4.14,40.2-1.96.68-3.2,2.2-3.45,4.52-2.77,25.39-14.27,48.24-33.02,65.42-9.14,8.75-19.4,14.81-30.79,20.63l19.53,65.3,88.89-.09,3.12-44.92,7.13-106.86,2.6-42.52c-35.99-10-70.81-28.28-85.89-64.05-5.69-13.49-7.11-27.39-6.79-42.02.06-2.7.11-5.53,1.68-7.63,1.15-1.52,4.28-2.84,6.74-2.85l71.42-.04.36-20.57,18.83.31.39,20.17,14.91.05.23-85.65c.03-12.6,5.65-24.54,15.46-32.08,10.18-7.83,23.53-8.95,35.51-3.3,9.72,4.58,18.57,14.75,19.43,26.95.61,8.71.21,17.06.14,25.8-.05,6.06-11.94,4.87-15.61,3.67-1.25-.41-2.52-3.5-2.52-4.83l.04-20.2c.02-9.44-7.19-16.52-16.32-16.78-8.68-.25-16.97,6.92-17,16.61l-.22,89.67,14.56.03-.09-31.28c-.02-5.4,4.07-8.8,9.58-8.81l41.1-.02c4.58,0,7.53,3.01,7.6,7.35s-2.53,8.88-7.31,8.94l-31.96.42-.18,23.51,90.32.14c5.26,0,10.48,4.64,10.77,9.57,1.95,34.05-15.05,66.33-41.69,86.67-12.82,9.79-27.16,16.84-42.43,21.84l7.13,95.83,7.53,96.76,52.13.99c4.67.09,7.45,4.72,7.36,8.29-.11,4.13-3.21,7.53-8.25,7.53H77.58c-4.95,0-8.4-3.31-8.4-7.52,0-3.73,2.97-7.96,7.54-8.08l51.28-1.38,17.53-76.34c2.62-11.4.8-23.55-6.26-32.23l-9.86-12.13ZM205.86,197.95c.22-4.37.28-8.25-.04-12.51-.4-5.28-4.98-10.33-10.91-10.34l-81.63-.1c-6.21,0-11.1,4.49-11.19,10.63l-.18,12.27,103.95.05ZM206.23,215.98h-104.48s.01,134.23.01,134.23h104.48s-.01-134.23-.01-134.23ZM485.86,266.28c-2.05-.01-4.99.01-5.45-1.06-1.5-3.47-1.3-7.66.28-11.36l65.96-.03,62.44-.11c2.01-4.79,2.86-9.58,2.15-14.41l-229.07-.03c3.44,57.78,49.33,80.57,101.54,82.89,23.79,1.06,46.93-2.08,69.05-10.84,19.67-7.79,42-23.73,50.81-44.39l-117.71-.66ZM542.35,532.61l-14.05-187.33c-18.74,1.97-36.53,1.75-55.05-1.79l-7.16,108.52-4.88,80.73,81.13-.14ZM392.37,360.58c.83-4.44.27-8.51-1.7-12.11-.93-1.7-4.18-2.67-6.59-2.66l-160.02.02.06,16.53,157.68-.11c3.56,0,7.36-.7,10.58-1.65ZM230.99,463.96c-31.6-17.14-54.8-49.84-55.16-86.42-.03-3.36-.33-6.27-1.22-9.62l-45.8-.05c4.51,17.73,14.23,32.78,26.07,46.19,9.77,12.9,14.46,27.94,11.39,44.05l-14.14,74.31h177.6s-15.2-57.57-15.2-57.57c-29.15,6.92-57.62,3.19-83.55-10.88ZM315.9,451.25c36.08-8.76,61.29-34.98,63.68-72.05l-71.47.05-100.9,1.07c-5.17.66-9.5,1.67-13.63,4.95,10.79,52.8,73.75,77.78,122.33,65.98Z"/>
    <path class="st1" d="M404,189.35c-7.73.28-3.06-8.3-10.46-24.35-10.32-22.39-36.19-17.55-39.51-20.99-.98-1.01-.96-5.05-.3-6.33,1.38-2.71,29.75-.11,39.9-25.05,2.6-6.39,3.58-13,5.11-20.01.6-2.75,7.44-3.22,8.03-.23,1.11,5.67,1.02,11.37,2.65,16.81,3.46,11.56,11.66,20.05,23.16,23.54,12.05,3.66,20.4.53,20.61,6.78.25,7.34-9.04,3.97-24.59,10.35-11,4.51-18.32,13.78-19.55,25.76l-1.14,11.19c-.13,1.24-2.76,2.49-3.91,2.53Z"/>
    <path class="st0" d="M331.9,238.42c-.38,2.18-6.77,2.07-7.22.16-1.25-6.41-1.5-12.41-3.57-18.37-5.91-17.03-20.22-19.7-35.93-22.02-1.62-.55-1.79-5.31-.59-6.75,13.06-3.38,29.11-6.08,35.66-19.95,5.49-11.61.74-22.22,6.87-22.89,3.19-.35,4.57,1.15,5.26,4.3,3.27,15.03,6.19,30.27,22.87,35.59,11.29,3.6,18.89,1.71,19.01,6.87.16,6.94-7.25,3.2-20.82,8.44-8.83,3.41-15.29,10.09-18.26,19.07-1.62,4.89-2.25,9.54-3.29,15.55Z"/>
  </g>
  <g>
    <path class="st2" d="M633.46,618.99c-94.3,10.16-188.81,12.46-283.46,12.75-94.66-.33-189.16-2.64-283.46-12.75,0,0,0-1.5,0-1.5,129.7-.72,294.95-.84,425.2-.5,35.23.01,106.48.26,141.73.5,0,0,0,1.5,0,1.5h0Z"/>
    <path class="st3" d="M589.02,639.75c-157.78,27.52-320.2,26.79-478.04,0,0,0,.08-1.5.08-1.5,119.4,5.39,238.94,9.31,358.43,4.81,39.82-1.33,79.64-2.9,119.44-4.81,0,0,.09,1.5.09,1.5h0Z"/>
  </g>
</svg>