<?xml version="1.0" encoding="UTF-8"?>
<svg id="Layer_1" xmlns="http://www.w3.org/2000/svg" version="1.1" viewBox="0 0 232.65 66.09">
  <!-- Generator: Adobe Illustrator 30.2.1, SVG Export Plug-In . SVG Version: 2.1.1 Build 1)  -->
  <defs>
    <style>
      .st0 {
        fill: #ffca3a;
      }
    </style>
  </defs>
  <path class="st0" d="M45.17,17.8c1.94,0,3.32,1.25,3.32,2.99s-1.38,3.01-3.32,3.01-3.32-1.25-3.32-3.01,1.4-2.99,3.32-2.99ZM45.17,46.73c-1.96,0-3.07-1.17-3.07-3.38v-14.11c0-2.21,1.13-3.38,3.07-3.38s3.09,1.17,3.09,3.38v14.11c0,2.21-1.13,3.38-3.09,3.38Z"/>
  <path class="st0" d="M79.91,46.73c-1.98,0-3.07-1.17-3.07-3.38v-9.1c0-2.27-1.11-3.55-2.99-3.55s-3.11,1.44-3.11,3.72v8.93c0,2.21-1.02,3.38-2.94,3.38s-2.96-1.17-2.96-3.38v-9.06c0-2.25-1.15-3.59-3.03-3.59s-3.07,1.42-3.07,3.72v8.93c0,2.21-1.09,3.38-3.07,3.38s-3.09-1.17-3.09-3.38v-14.21c0-2.03,1.15-3.28,3.01-3.28,1.77,0,2.88,1.15,2.98,3.09v.58h.31c.63-2.3,2.84-3.8,5.62-3.8s4.95,1.46,5.61,3.88h.29c.79-2.34,3.13-3.88,6.1-3.88,4.03,0,6.51,2.5,6.51,6.58v11.04c0,2.21-1.11,3.38-3.09,3.38Z"/>
  <path class="st0" d="M90.39,53.7c-2,0-3.07-1.19-3.07-3.38v-21.08c0-2.17,1.08-3.38,3.03-3.38,1.82,0,2.92,1,3.07,2.84v.58h.31c.83-2.17,3.01-3.55,5.85-3.55,4.72,0,7.51,3.44,7.51,9.31v2.36c0,5.89-2.8,9.37-7.54,9.37-2.78,0-4.9-1.25-5.78-3.44h-.31v6.99c0,2.19-1.09,3.38-3.07,3.38ZM97.15,41.99c2.27,0,3.59-1.82,3.59-4.93v-1.61c0-3.15-1.32-4.93-3.63-4.93s-3.65,1.75-3.65,4.74v2.13c0,2.82,1.46,4.61,3.69,4.61Z"/>
  <path class="st0" d="M110.63,43.35v-21.17c0-2.23,1.11-3.4,3.07-3.4s3.09,1.17,3.09,3.4v21.17c0,2.21-1.13,3.38-3.09,3.38s-3.07-1.17-3.07-3.38Z"/>
  <path class="st0" d="M120.12,35.18c0-5.8,3.84-9.64,9.62-9.64,5.43,0,9.27,3.8,9.27,8.89,0,2.34-.83,3.19-3.03,3.19h-9.58v.75c.04,2.42,1.65,4.05,4.4,4.05,1.48,0,2.48-.33,3.26-.9.94-.6,1.34-.96,2.3-.96,1.25,0,2.07.81,2.07,2.11,0,1.09-.67,2.05-1.84,2.78-1.4,1-3.65,1.59-6.24,1.59-6.33,0-10.23-3.61-10.23-9.6v-2.27ZM133.19,34.08v-.06c0-2.34-1.31-3.88-3.32-3.88-2.17,0-3.47,1.57-3.47,3.88v.06h6.8Z"/>
  <path class="st0" d="M140.33,25.27c-.21-.79-.33-1.63-.33-2.15,0-1.79,1.27-3.01,3.11-3.01,1.69,0,2.69,1.09,3.23,3.47l3.26,14.51h.31l3.53-14.61c.58-2.38,1.54-3.38,3.32-3.38s2.78,1.04,3.36,3.38l3.51,14.61h.33l3.13-14.51c.48-2.34,1.55-3.47,3.26-3.47,1.8,0,3.07,1.23,3.07,2.96,0,.54-.1,1.36-.23,1.82l-5.13,18.6c-.61,2.21-1.77,3.21-3.69,3.21-2.02,0-3.3-1-3.92-3.38l-3.57-13.51h-.25l-3.61,13.69c-.56,2.09-1.86,3.21-3.74,3.21s-3.15-.79-3.84-3.21l-5.13-18.22Z"/>
  <path class="st0" d="M174.33,35.18c0-5.8,3.84-9.64,9.62-9.64,5.43,0,9.27,3.8,9.27,8.89,0,2.34-.83,3.19-3.03,3.19h-9.58v.75c.04,2.42,1.65,4.05,4.4,4.05,1.48,0,2.48-.33,3.26-.9.94-.6,1.34-.96,2.3-.96,1.25,0,2.07.81,2.07,2.11,0,1.09-.67,2.05-1.84,2.78-1.4,1-3.65,1.59-6.24,1.59-6.33,0-10.23-3.61-10.23-9.6v-2.27ZM187.4,34.08v-.06c0-2.34-1.31-3.88-3.32-3.88-2.17,0-3.47,1.57-3.47,3.88v.06h6.8Z"/>
  <path class="st0" d="M202.95,43.35h-.31v.5c0,1.86-1.21,2.9-3.05,2.9-1.98,0-3.05-1.21-3.05-3.4v-21.17c0-2.17,1.09-3.38,3.07-3.38s3.07,1.21,3.07,3.38v7.05h.31c.69-2.11,3.01-3.47,5.89-3.47,4.65,0,7.45,3.46,7.45,9.33v2.36c0,5.87-2.8,9.35-7.53,9.35-2.84,0-5.07-1.31-5.85-3.44ZM206.4,42.01c2.25,0,3.55-1.8,3.55-4.91v-1.57c0-3.13-1.32-5.01-3.59-5.01s-3.69,1.84-3.69,4.82v2.03c0,2.84,1.48,4.65,3.72,4.65Z"/>
  <g>
    <path class="st0" d="M33.08,12.69c.53-.19.95-.3,1.5-.3,1.92,0,3.2,1.31,3.2,3.25,0,1.64-1.01,2.78-2.91,3.27l-12.63,4.58.36.14,12.23,4.74c1.92.57,2.93,1.73,2.93,3.33,0,1.94-1.31,3.33-3.16,3.33-.55,0-.97-.11-1.54-.34l-12.75-5.92c-2.93-1.16-3.98-2.78-3.98-5.14,0-2.49,1.14-4.22,3.98-5.25l12.77-5.69Z"/>
    <path class="st0" d="M33.8,37.05c2.85,1.03,3.98,2.76,3.98,5.25s-1.05,3.98-3.98,5.14l-12.75,5.92c-.57.23-.99.34-1.54.34-1.85,0-3.16-1.39-3.16-3.33,0-1.6,1.01-2.76,2.93-3.33l12.23-4.74.36-.14-12.63-4.58c-1.9-.48-2.91-1.62-2.91-3.27,0-1.94,1.29-3.25,3.2-3.25.55,0,.97.11,1.5.3l12.77,5.69Z"/>
  </g>
</svg>