<?xml version="1.0" encoding="UTF-8"?>
<svg id="Színtáradatok_réteg" xmlns="http://www.w3.org/2000/svg" xmlns:xlink="http://www.w3.org/1999/xlink" version="1.1" viewBox="0 0 700 700">
  <!-- Generator: Adobe Illustrator 30.2.1, SVG Export Plug-In . SVG Version: 2.1.1 Build 1)  -->
  <defs>
    <style>
      .st0 {
        fill: url(#linear-gradient);
      }
    </style>
    <linearGradient id="linear-gradient" x1="350" y1="619.67" x2="350" y2="-45.01" gradientUnits="userSpaceOnUse">
      <stop offset="0" stop-color="#02378f"/>
      <stop offset="1" stop-color="#0185e4"/>
    </linearGradient>
  </defs>
  <path class="st0" d="M555.21,449.36l-54.72-55.2c-9.6-10.08-20.64-14.88-32.64-14.88s-23.52,5.28-33.12,14.88l-32.16,32.16c-2.88-1.44-5.76-2.88-8.64-4.32-3.84-1.92-7.2-3.36-10.08-5.28-29.76-18.72-56.64-43.68-82.56-75.36-12.96-16.32-21.6-29.76-27.84-44.16,8.64-7.68,16.32-15.84,24-23.52l8.64-8.64c10.08-10.08,15.36-21.6,15.36-33.6s-5.28-23.52-15.36-33.6l-27.36-27.36c-3.36-3.36-6.24-6.24-9.12-9.6-6.24-6.24-12.48-12.48-18.72-18.24-9.6-9.6-20.64-14.4-32.64-14.4s-23.04,4.8-33.12,14.4l-34.08,35.04c-12.48,12.48-19.68,27.84-21.12,45.6-1.92,22.08,2.4,45.12,12.96,73.44,15.84,43.68,40.32,84,76.32,127.2,43.68,51.84,96,93.12,156,121.92,23.04,11.04,53.28,23.52,87.36,25.92h6.24c22.56,0,41.76-8.16,56.64-24.48l.48-.48c5.28-6.24,11.04-12,17.76-18.24,4.32-4.32,8.64-8.64,12.96-12.96,18.72-20.16,18.72-46.56-1.44-66.24ZM537.93,499.76c-3.84,4.32-7.68,8.16-12,12-6.24,6.24-12.96,12.48-19.2,19.68-10.56,11.04-22.56,16.32-38.88,16.32h-4.8c-29.76-1.92-57.6-13.44-78.72-23.52-56.64-27.36-106.56-66.24-147.84-115.68-34.08-40.8-57.12-79.2-72-120-9.12-24.96-12.96-44.64-11.52-63.36.96-12,5.76-22.08,14.4-30.72l34.08-34.08c5.28-4.8,11.04-7.68,16.32-7.68s11.04,2.4,15.84,7.68c6.24,5.76,12,11.52,18.24,17.76,3.36,3.36,6.24,6.24,9.6,9.6l27.36,27.36c5.76,5.76,8.16,11.04,8.16,16.32s-2.88,11.04-8.16,16.32c-2.88,2.88-5.76,5.76-8.64,8.64-8.64,8.64-16.32,16.8-24.96,24.48l-.48.48c-7.68,7.68-6.72,15.36-4.8,21.12q0,.48.48.96c7.2,16.8,16.8,33.12,32.16,52.32,27.36,34.08,56.64,60,88.32,80.64,3.84,2.4,8.16,4.8,12,6.72,3.84,1.92,7.2,3.36,10.08,5.28.48,0,.48.48.96.48,3.36,1.44,6.24,2.4,9.12,2.4,7.68,0,12.48-4.8,13.92-6.72l34.08-34.08c5.28-5.28,10.56-7.68,16.32-7.68,6.72,0,12,4.32,15.84,7.68l55.2,55.2c13.44,13.92,7.2,25.92-.48,34.08Z"/>
</svg>